<?xml version="1.0" encoding="UTF-8"?>
<svg version="1.1" xmlns="http://www.w3.org/2000/svg" width="5000" height="5000">
<path d="M0 0 C1650 0 3300 0 5000 0 C5000 1650 5000 3300 5000 5000 C3350 5000 1700 5000 0 5000 C0 3350 0 1700 0 0 Z " fill="#26A9E0" transform="translate(0,0)"/>
<path d="M0 0 C1650 0 3300 0 5000 0 C5000 1650 5000 3300 5000 5000 C3350 5000 1700 5000 0 5000 C0 3350 0 1700 0 0 Z M2425 313 C2424.12734497 313.03158203 2423.25468994 313.06316406 2422.35559082 313.09570312 C2408.23118097 313.61410003 2394.1145193 314.26095283 2380 315 C2379.08895508 315.0474939 2378.17791016 315.09498779 2377.23925781 315.1439209 C2287.98576859 319.84797172 2199.03440544 330.6759713 2010.73497009 367.03405762 C2004.8403414 368.36328001 1998.94338823 369.68111745 1993.04296875 370.984375 C1975.24976343 374.92306063 1957.61054629 379.3217644 1940 384 C1938.79279297 384.32033203 1937.58558594 384.64066406 1936.34179688 384.97070312 C1924.19530977 388.20136354 1912.0660078 391.47968483 1900 395 C1898.24746447 395.5054464 1896.49485318 396.0106301 1894.7421875 396.515625 C1867.09856689 404.50350206 1839.65526081 413.14780907 1812.29370117 422.04956055 C1809.56825368 422.93562942 1806.84175806 423.818421 1804.11523438 424.70117188 C1787.66879839 430.04064565 1771.34089121 435.65958284 1755.1875 441.83203125 C1753.92909302 442.31240845 1753.92909302 442.31240845 1752.64526367 442.80249023 C1751.33585815 443.30244507 1751.33585815 443.30244507 1750 443.8125 C1743.73446 446.20178541 1737.46646597 448.58370962 1731.1875 450.9375 C1730.23556763 451.29497314 1730.23556763 451.29497314 1729.2644043 451.65966797 C1725.50693405 453.06866172 1721.74410062 454.46189461 1717.9765625 455.84375 C1687.93341373 466.91647716 1658.41338757 479.36435016 1629 492 C1627.6323291 492.58676269 1626.26465329 493.17351392 1624.89697266 493.76025391 C1621.5264904 495.20705546 1618.15761244 496.65753459 1614.79000854 498.11102295 C1612.96203356 498.89993816 1611.13349647 499.68755055 1609.30493164 500.47509766 C1595.35351833 506.52094128 1581.66735755 513.09403392 1568 519.75 C1565.07465707 521.172778 1562.14881265 522.59452082 1559.22265625 524.015625 C1558.507715 524.36286621 1557.79277374 524.71010742 1557.0561676 525.06787109 C1552.08568302 527.47949322 1547.10255581 529.86328756 1542.11108398 532.23120117 C1520.87212566 542.31054246 1499.80717851 552.73905166 1479.23828125 564.12890625 C1473.58619015 567.25014632 1467.85926097 570.22071052 1462.125 573.1875 C1453.74667714 577.53243232 1445.48280493 582.02588874 1437.28710938 586.70410156 C1434.61066371 588.22060173 1431.9231874 589.71647428 1429.234375 591.2109375 C1415.35802433 598.92782696 1401.62687083 606.85139624 1388 615 C1386.30737212 616.00794762 1384.61466491 617.01576202 1382.921875 618.0234375 C1371.6695574 624.73507653 1360.50848859 631.58860172 1349.38671875 638.51416016 C1347.2592525 639.83860365 1345.12996147 641.16004385 1343 642.48046875 C1334.70866321 647.63036738 1326.47485894 652.86969065 1318.25 658.125 C1317.22036133 658.78218018 1316.19072266 659.43936035 1315.12988281 660.11645508 C1308.94936286 664.07347117 1302.81682407 668.09527478 1296.71923828 672.17895508 C1294.02678145 673.98206475 1291.32682327 675.77346544 1288.625 677.5625 C1265.84466717 692.75926299 1243.29726484 708.32211635 1221.15625 724.43652344 C1218.98529013 726.01066599 1216.80651629 727.57333889 1214.625 729.1328125 C1204.62647269 736.28990864 1194.81138701 743.66272701 1185.05078125 751.140625 C1180.57940701 754.56493202 1176.07744097 757.94597024 1171.5625 761.3125 C1160.82071204 769.34271664 1150.34816996 777.6864715 1139.95874023 786.16601562 C1135.6970925 789.63904018 1131.39849793 793.05792638 1127.0625 796.4375 C1114.97630089 805.87469294 1103.23324013 815.74135334 1091.55615234 825.67773438 C1089.43609437 827.4791517 1087.30994489 829.27331154 1085.18408203 831.06787109 C1082.45281692 833.37476619 1079.72581022 835.68666353 1077 838 C1076.42072754 838.49145508 1075.84145508 838.98291016 1075.24462891 839.48925781 C1068.20479156 845.46956214 1061.25844315 851.52300759 1054.44921875 857.765625 C1051.67500128 860.29649006 1048.85292879 862.76639391 1046.01953125 865.23046875 C1042.8385427 868.01767922 1039.7022769 870.8540428 1036.5625 873.6875 C1034.08734669 875.92117493 1031.60631688 878.14817716 1029.125 880.375 C1023.91732792 885.0627173 1018.74928585 889.7928239 1013.59277344 894.53662109 C1011.95220673 896.04391062 1010.30828361 897.54747973 1008.6640625 899.05078125 C1003.07644337 904.17059971 997.56657247 909.32195297 992.29296875 914.76953125 C990.4960136 916.51750636 988.69037243 918.11215167 986.77880859 919.72558594 C979.95116871 925.68689822 973.64649931 932.2099932 967.24609375 938.62109375 C965.81712673 940.04938592 964.38801139 941.47752973 962.95875549 942.90553284 C959.97421313 945.88860676 956.99147176 948.87346662 954.01000977 951.85961914 C950.20519925 955.67012639 946.39591621 959.47612585 942.58526516 963.28079128 C939.63649412 966.22593362 936.69012767 969.17347233 933.74446297 972.12172127 C932.34149442 973.5253527 930.9377943 974.92825332 929.53332329 976.33038139 C920.12704389 985.65914008 920.12704389 985.65914008 911.27357483 995.50624084 C908.60042257 998.64154594 905.57407117 1001.44103597 902.625 1004.3125 C899.91693056 1007.08504728 897.38903544 1009.96710035 894.8515625 1012.89453125 C891.21335287 1017.03165148 887.39373185 1021.0008439 883.60546875 1025 C879.85100177 1028.97989047 876.19429109 1033.02469311 872.60742188 1037.15625 C870.44278786 1039.63913519 868.22443814 1042.0706794 866 1044.5 C859.46780179 1051.66972506 853.13436302 1058.99698834 846.83129883 1066.36767578 C843.56450209 1070.18509033 840.27813064 1073.9846109 836.97851562 1077.77368164 C831.96661694 1083.53104884 827.03760058 1089.33561935 822.234375 1095.26953125 C819.73841085 1098.31966925 817.18448968 1101.3157511 814.625 1104.3125 C810.30016179 1109.38724898 806.14930706 1114.57719093 802.05517578 1119.83911133 C799.10590075 1123.62046199 796.08633836 1127.3285738 793 1131 C788.03477192 1136.91767749 783.25509768 1142.96392177 778.51123047 1149.05908203 C776.92814703 1151.0922829 775.34118114 1153.12241377 773.75390625 1155.15234375 C761.30692871 1171.08947881 748.98425106 1187.10670414 737.20703125 1203.546875 C733.87435491 1208.19273448 730.46868442 1212.78292732 727.0625 1217.375 C720.46558214 1226.29061841 714.09440409 1235.3534054 707.76757812 1244.46191406 C705.97228052 1247.03980272 704.16741562 1249.61072284 702.359375 1252.1796875 C695.80231958 1261.49988431 689.34092003 1270.86842044 683.06884766 1280.3828125 C681.49549846 1282.76332074 679.90237525 1285.13050712 678.3125 1287.5 C659.55583266 1315.65387089 641.34992642 1344.19456154 624.03857422 1373.26123047 C622.66357754 1375.56323478 621.27542184 1377.85726011 619.88891602 1380.15234375 C609.40461383 1397.53978253 599.29493219 1415.13821363 589.421875 1432.87890625 C587.25016776 1436.77732885 585.0552758 1440.66033877 582.828125 1444.52734375 C574.36684922 1459.24701414 566.58908238 1474.27668901 558.87290955 1489.39491272 C556.2973251 1494.43553736 553.66407284 1499.44308894 551 1504.4375 C538.56111658 1527.90877872 526.99726963 1551.82384626 516 1576 C515.53480957 1577.02109863 515.06961914 1578.04219727 514.59033203 1579.09423828 C512.8511635 1582.91345486 511.1135424 1586.73334748 509.3828125 1590.55639648 C507.14705211 1595.49385338 504.87639369 1600.41120273 502.5625 1605.3125 C481.57744734 1650.16866151 463.5903796 1696.49187139 446.3125 1742.875 C446.04809113 1743.58337006 445.78368225 1744.29174011 445.51126099 1745.02157593 C438.63363171 1763.46411545 432.25535258 1782.07906826 425.91064453 1800.71044922 C424.87087694 1803.76210093 423.82804576 1806.81269524 422.78515625 1809.86328125 C419.03234352 1820.86411461 415.39681927 1831.88385743 412 1843 C411.40906823 1844.90501433 410.81794204 1846.80996837 410.2265625 1848.71484375 C406.77891008 1859.92708089 403.49710305 1871.17442443 400.39697266 1882.48803711 C398.98126629 1887.62788696 397.46417072 1892.6958986 395.74609375 1897.7421875 C394.31956888 1902.0591057 393.10130061 1906.43527807 391.875 1910.8125 C391.57932129 1911.86638916 391.28364258 1912.92027832 390.97900391 1914.00610352 C387.83849264 1925.35061395 385.01997096 1936.77319288 382.19897461 1948.20043945 C380.39358588 1955.50251562 378.55965249 1962.78228881 376.4375 1970 C372.81821052 1982.44468974 370.32483378 1995.21973676 367.56863403 2007.87742615 C366.47332926 2012.89113636 365.34030527 2017.89518057 364.18995667 2022.89653015 C361.28542592 2035.53847265 358.63572042 2048.22440965 356.0625 2060.9375 C355.73909134 2062.53084167 355.73909134 2062.53084167 355.40914917 2064.15637207 C353.93174048 2071.43604073 352.46349874 2078.7175235 351 2086 C350.74549072 2087.26387543 350.74549072 2087.26387543 350.48583984 2088.55328369 C347.42673175 2103.75156703 344.53007815 2118.91937716 342.54296875 2134.30078125 C342 2138 342 2138 341 2140 C340.72073296 2141.53799776 340.48626315 2143.08422203 340.2734375 2144.6328125 C340.13244629 2145.64013428 339.99145508 2146.64745605 339.84619141 2147.68530273 C339.69069824 2148.82040283 339.53520508 2149.95550293 339.375 2151.125 C339.01684234 2153.70200047 338.65773083 2156.27884658 338.296875 2158.85546875 C338.19778839 2159.56455887 338.09870178 2160.27364899 337.99661255 2161.00422668 C337.16726276 2166.90083856 336.28364906 2172.78851858 335.390625 2178.67578125 C324.34020208 2251.84349136 316.90195624 2326.04092471 314 2400 C313.93425781 2401.66207489 313.93425781 2401.66207489 313.8671875 2403.35772705 C310.78753093 2482.19239061 311.06328336 2561.08730812 317 2653 C317.11701263 2654.68029297 317.11701263 2654.68029297 317.23638916 2656.39453125 C321.44942542 2716.15499321 327.95993457 2775.94026448 337.24511719 2835.13037109 C337.79188892 2838.62532528 338.31482615 2842.12307979 338.82519531 2845.62353516 C338.96055695 2846.54737503 339.09591858 2847.4712149 339.23538208 2848.42304993 C339.49454313 2850.1977051 339.75107832 2851.97274632 340.00460815 2853.74821472 C340.55222799 2858.00258054 340.55222799 2858.00258054 342 2862 C342.30189393 2863.71577012 342.5619959 2865.43892255 342.8046875 2867.1640625 C344.35842437 2877.6052887 346.25630323 2887.98630789 348.125 2898.375 C348.42179153 2900.02521652 348.42179153 2900.02521652 348.72457886 2901.70877075 C354.46998863 2933.56339954 361.07403731 2965.18791857 368.46166992 2996.70019531 C369.02533811 2999.10824718 369.58619583 3001.51694089 370.14648438 3003.92578125 C371.13007735 3008.15289554 372.11853712 3012.37884521 373.11062622 3016.60397339 C373.48619815 3018.20458969 373.86082018 3019.80542928 374.23434448 3021.40652466 C376.37126785 3030.55265455 378.68093831 3039.62499442 381.23077393 3048.66508484 C382.93235268 3054.70489111 384.46576487 3060.77512985 385.9375 3066.875 C388.19038652 3076.04234633 390.73494785 3085.07574094 393.5078125 3094.09765625 C395.03944956 3099.08593324 396.46081863 3104.1023982 397.875 3109.125 C401.37157219 3121.48134281 405.1822359 3133.73981809 409 3146 C409.25168945 3146.80904785 409.50337891 3147.6180957 409.76269531 3148.45166016 C410.76431949 3151.6693241 411.76939121 3154.88584273 412.77880859 3158.10107422 C413.56280403 3160.60010633 414.3407395 3163.10076464 415.11523438 3165.6027832 C418.22482107 3175.63146072 421.48059911 3185.60566686 424.8125 3195.5625 C425.20858459 3196.74693192 425.20858459 3196.74693192 425.6126709 3197.95529175 C427.17978404 3202.63902381 428.75149998 3207.32118848 430.32745361 3212.00195312 C430.91048393 3213.73405954 431.49222429 3215.46660006 432.07373047 3217.19921875 C448.0125297 3264.51779264 466.26397153 3311.30024267 486.27246094 3357.0390625 C487.95238502 3360.88292071 489.60773364 3364.73700472 491.2578125 3368.59375 C503.28537299 3396.66801852 516.07143511 3424.37180012 529.47879028 3451.81230164 C531.22738105 3455.39653292 532.94964108 3458.99164954 534.64453125 3462.6015625 C547.04003394 3488.99253749 560.44586939 3514.98425434 574.60644531 3540.47021484 C576.13027693 3543.23649781 577.6260748 3546.01673013 579.1171875 3548.80078125 C586.18730593 3561.99513651 593.57176082 3574.96607703 601.16455078 3587.86572266 C604.41286333 3593.41265489 607.60875316 3598.98975434 610.8125 3604.5625 C616.11585219 3613.76693035 621.45831299 3622.93711697 627 3632 C627.56267578 3632.92184082 628.12535156 3633.84368164 628.70507812 3634.79345703 C637.97569049 3649.96635927 647.38921011 3665.04033906 657 3680 C657.73210693 3681.14154541 657.73210693 3681.14154541 658.47900391 3682.30615234 C664.45278745 3691.61404481 670.53048567 3700.84883074 676.68359375 3710.0390625 C679.14429717 3713.71465811 681.59208076 3717.398602 684.03515625 3721.0859375 C684.73358643 3722.13837646 685.4320166 3723.19081543 686.15161133 3724.27514648 C687.50870895 3726.32034549 688.86413003 3728.36665839 690.2175293 3730.41430664 C694.0394332 3736.16632781 697.99000677 3741.79549573 702.07568359 3747.36303711 C705.01063309 3751.3849084 707.84631751 3755.47414153 710.6875 3759.5625 C717.35520557 3769.11768852 724.13249505 3778.58753853 731 3788 C731.55123535 3788.75603516 732.1024707 3789.51207031 732.67041016 3790.29101562 C741.94391647 3802.9909314 751.43339816 3815.51987307 761 3828 C761.94925474 3829.24085789 762.89847758 3830.48174017 763.84765625 3831.72265625 C772.427696 3842.92373092 781.16818189 3853.99672247 790 3865 C790.64453125 3865.80824219 791.2890625 3866.61648437 791.953125 3867.44921875 C796.17147557 3872.73876464 800.43121769 3877.99223626 804.72265625 3883.22265625 C806.21300202 3885.04021344 807.70011494 3886.86042748 809.18359375 3888.68359375 C814.57609659 3895.30647156 820.06724175 3901.83923753 825.59716797 3908.34716797 C827.42824889 3910.50456752 829.25346426 3912.66688968 831.07885742 3914.82910156 C833.38220855 3917.55587196 835.69036505 3920.27855129 838 3923 C838.49145508 3923.57927246 838.98291016 3924.15854492 839.48925781 3924.75537109 C845.46956214 3931.79520844 851.52300759 3938.74155685 857.765625 3945.55078125 C860.29649006 3948.32499872 862.76639391 3951.14707121 865.23046875 3953.98046875 C868.01767922 3957.1614573 870.8540428 3960.2977231 873.6875 3963.4375 C875.92117493 3965.91265331 878.14817716 3968.39368312 880.375 3970.875 C885.06132813 3976.08112883 889.78990399 3981.24778173 894.53222656 3986.40283203 C896.05231563 3988.05692762 897.56920363 3989.71392155 899.0859375 3991.37109375 C903.99059709 3996.71939089 908.92825772 4001.98941856 914.10752869 4007.0750885 C915.76582263 4008.76180843 917.28526126 4010.48299819 918.80297852 4012.29467773 C924.79605231 4019.18282932 931.38199573 4025.52541081 937.83984375 4031.97265625 C939.29055619 4033.42404351 940.74112025 4034.87557908 942.19154358 4036.32725525 C945.22169583 4039.35887609 948.25363453 4042.38869567 951.28686523 4045.41723633 C955.15790655 4049.2825809 959.0244404 4053.15239825 962.88963985 4057.02358341 C965.88110552 4060.01867737 968.87496711 4063.01136729 971.86953926 4066.00335503 C973.29549944 4067.42865221 974.7207285 4068.85468128 976.14518547 4070.28148079 C985.56684574 4079.78803188 985.56684574 4079.78803188 995.51393127 4088.7341156 C998.64753522 4091.40342711 1001.4436988 4094.42866363 1004.3125 4097.375 C1007.08504728 4100.08306944 1009.96710035 4102.61096456 1012.89453125 4105.1484375 C1017.03165148 4108.78664713 1021.0008439 4112.60626815 1025 4116.39453125 C1028.97989047 4120.14899823 1033.02469311 4123.80570891 1037.15625 4127.39257812 C1039.63913519 4129.55721214 1042.0706794 4131.77556186 1044.5 4134 C1051.66972506 4140.53219821 1058.99698834 4146.86563698 1066.36767578 4153.16870117 C1070.18509033 4156.43549791 1073.9846109 4159.72186936 1077.77368164 4163.02148438 C1083.53104884 4168.03338306 1089.33561935 4172.96239942 1095.26953125 4177.765625 C1098.31966808 4180.26158819 1101.31578405 4182.8154731 1104.3125 4185.375 C1109.36136962 4189.67878205 1114.52787815 4193.80281966 1119.76660156 4197.87231445 C1123.78456501 4201.00723962 1127.6937004 4204.24580244 1131.5625 4207.5625 C1136.72736469 4211.98054373 1142.0327865 4216.17701076 1147.4453125 4220.2890625 C1150.75642027 4222.80475401 1154.03312816 4225.36289509 1157.30834961 4227.92504883 C1166.99120322 4235.49577559 1176.79700668 4242.89270736 1186.6484375 4250.2421875 C1188.83235592 4251.87468466 1191.0112069 4253.51360732 1193.1875 4255.15625 C1202.27813648 4262.01443165 1211.47384843 4268.71517179 1220.72216797 4275.35888672 C1222.97739015 4276.98371024 1225.22600828 4278.61725248 1227.47265625 4280.25390625 C1237.43389938 4287.50250888 1247.5285485 4294.52748664 1257.72021484 4301.44775391 C1261.30322376 4303.88733098 1264.86942959 4306.35115438 1268.4375 4308.8125 C1273.92451487 4312.59074197 1279.43866878 4316.32377451 1284.9921875 4320.00390625 C1287.0647954 4321.37936422 1289.13221874 4322.7626559 1291.1953125 4324.15234375 C1303.3239388 4332.31727602 1315.66356235 4340.15407353 1328 4348 C1328.87269531 4348.55510254 1329.74539063 4349.11020508 1330.64453125 4349.68212891 C1336.08534016 4353.1390384 1341.53744207 4356.57756561 1347 4360 C1347.82387207 4360.51626953 1348.64774414 4361.03253906 1349.49658203 4361.56445312 C1361.93704509 4369.3459474 1374.48982871 4376.91767961 1387.15234375 4384.33203125 C1390.05161903 4386.03023501 1392.94773847 4387.73373757 1395.84375 4389.4375 C1408.10577121 4396.63635011 1420.4544234 4403.66374753 1432.87890625 4410.578125 C1436.77732885 4412.74983224 1440.66033877 4414.9447242 1444.52734375 4417.171875 C1459.24701414 4425.63315078 1474.27668901 4433.41091762 1489.39491272 4441.12709045 C1494.43553736 4443.7026749 1499.44308894 4446.33592716 1504.4375 4449 C1527.90877872 4461.43888342 1551.82384626 4473.00273037 1576 4484 C1577.02109863 4484.46519043 1578.04219727 4484.93038086 1579.09423828 4485.40966797 C1582.91345486 4487.1488365 1586.73334748 4488.8864576 1590.55639648 4490.6171875 C1595.49385338 4492.85294789 1600.41120273 4495.12360631 1605.3125 4497.4375 C1663.93393675 4524.84079635 1724.83534641 4547.97613395 1786 4569 C1786.75478638 4569.25968567 1787.50957275 4569.51937134 1788.28723145 4569.78692627 C1793.59264877 4571.61212923 1798.89929164 4573.43372049 1804.2071228 4575.25189209 C1805.99984457 4575.8661972 1807.79235252 4576.48112673 1809.58462524 4577.09674072 C1820.67347439 4580.90377464 1831.79041762 4584.56476795 1843 4588 C1844.90496249 4588.59109888 1846.80991188 4589.18223995 1848.71484375 4589.7734375 C1859.92708089 4593.22108992 1871.17442443 4596.50289695 1882.48803711 4599.60302734 C1887.62788696 4601.01873371 1892.6958986 4602.53582928 1897.7421875 4604.25390625 C1902.0591057 4605.68043112 1906.43527807 4606.89869939 1910.8125 4608.125 C1911.86638916 4608.42067871 1912.92027832 4608.71635742 1914.00610352 4609.02099609 C1925.35061395 4612.16150736 1936.77319288 4614.98002904 1948.20043945 4617.80102539 C1955.50255602 4619.60642411 1962.78199381 4621.44128627 1970 4623.5625 C1982.40569526 4627.15538921 1995.12549773 4629.65806131 2007.73817444 4632.40939331 C2013.31531142 4633.62698552 2018.88746255 4634.86545721 2024.45703125 4636.1171875 C2040.45132768 4639.70891859 2056.45277169 4643.18172267 2072.54345703 4646.31982422 C2076.6031485 4647.11868708 2080.65910714 4647.93524516 2084.71484375 4648.75390625 C2086.26553605 4649.06636245 2087.81623596 4649.37878086 2089.36694336 4649.69116211 C2091.64227717 4650.14953374 2093.91752469 4650.60830197 2096.19241333 4651.06887817 C2104.1778913 4652.68445177 2112.17024848 4654.24267154 2120.19140625 4655.671875 C2120.88681519 4655.79672272 2121.58222412 4655.92157043 2122.29870605 4656.05020142 C2126.92616627 4656.86255549 2131.52981119 4657.45154729 2136.21484375 4657.7890625 C2138 4658 2138 4658 2140 4659 C2141.53799776 4659.27926704 2143.08422203 4659.51373685 2144.6328125 4659.7265625 C2145.64013428 4659.86755371 2146.64745605 4660.00854492 2147.68530273 4660.15380859 C2148.82040283 4660.30930176 2149.95550293 4660.46479492 2151.125 4660.625 C2153.70200047 4660.98315766 2156.27884658 4661.34226917 2158.85546875 4661.703125 C2159.91910393 4661.85175491 2159.91910393 4661.85175491 2161.00422668 4662.00338745 C2166.90083856 4662.83273724 2172.78851858 4663.71635094 2178.67578125 4664.609375 C2221.84142281 4671.12862501 2265.18304536 4675.90606478 2308.66088867 4679.78967285 C2310.91943689 4679.99275596 2313.17754271 4680.20014252 2315.43554688 4680.40917969 C2393.53638316 4687.61858955 2472.3050189 4689.42055978 2660.4921875 4682.24810791 C2663.75357316 4682.01742979 2667.01532649 4681.7933166 2670.27734375 4681.57177734 C2725.38367358 4677.79707905 2780.56650301 4671.31459812 2835.13037109 4662.75488281 C2838.62532528 4662.20811108 2842.12307979 4661.68517385 2845.62353516 4661.17480469 C2847.00929497 4660.97176224 2847.00929497 4660.97176224 2848.42304993 4660.76461792 C2850.1977051 4660.50545687 2851.97274632 4660.24892168 2853.74821472 4659.99539185 C2858.00258054 4659.44777201 2858.00258054 4659.44777201 2862 4658 C2863.69759482 4657.70221958 2865.4025249 4657.44612143 2867.109375 4657.20703125 C2877.86378331 4655.60804385 2888.55150518 4653.62023313 2899.25 4651.6875 C2900.37270294 4651.48480499 2901.49540588 4651.28210999 2902.65213013 4651.07327271 C2929.59969502 4646.20194974 2956.29688372 4640.66057559 2982.96960449 4634.47064209 C2987.10798396 4633.51137304 2991.24812904 4632.55975925 2995.38793945 4631.60668945 C2998.51564342 4630.88579975 3001.64262284 4630.16183166 3004.76953125 4629.4375 C3009.13946574 4628.42643618 3013.51220479 4627.4285577 3017.88671875 4626.4375 C3027.66838915 4624.21499049 3037.40318999 4622.0024331 3047.015625 4619.12109375 C3052.83400715 4617.43173252 3058.74232819 4616.06925342 3064.625 4614.625 C3073.7539857 4612.37396789 3082.79276058 4609.97289903 3091.77514648 4607.1953125 C3097.71180865 4605.36361508 3103.68332923 4603.72012514 3109.6875 4602.125 C3120.98875781 4599.10219566 3132.09274808 4595.52651106 3143.21337891 4591.90332031 C3146.98821177 4590.679658 3150.7730804 4589.49006821 3154.5625 4588.3125 C3156.384296 4587.74607415 3158.20609128 4587.17964601 3160.02787781 4586.6131897 C3161.89039879 4586.03407818 3163.75293808 4585.45502553 3165.61547852 4584.87597656 C3174.81890393 4582.00777963 3184.00910376 4579.10080238 3193.18408203 4576.14282227 C3194.65495046 4575.66930556 3196.12631287 4575.1973208 3197.59814453 4574.72680664 C3205.07411077 4572.3365709 3212.49163593 4569.91456783 3219.74902344 4566.90991211 C3223.75199303 4565.29179197 3227.8501127 4563.94968 3231.9375 4562.5625 C3274.92037636 4547.75404995 3317.24606267 4530.96165866 3359 4513 C3360.05000183 4512.54880798 3360.05000183 4512.54880798 3361.12121582 4512.08850098 C3391.6844106 4498.94735205 3421.92109695 4485.12596659 3451.81227112 4470.52122498 C3455.39651234 4468.77262862 3458.99163924 4467.05036375 3462.6015625 4465.35546875 C3489.0218595 4452.94619388 3515.05983574 4439.54001988 3540.56494141 4425.34619141 C3543.15280585 4423.91552322 3545.75233985 4422.50815959 3548.35546875 4421.10546875 C3559.23296939 4415.23759717 3569.97442799 4409.17729288 3580.61865234 4402.89501953 C3586.18909396 4399.61156274 3591.80534751 4396.44500765 3597.49194336 4393.3671875 C3600.84655524 4391.53852727 3604.14918362 4389.63229187 3607.4375 4387.6875 C3608.1294043 4387.27927002 3608.82130859 4386.87104004 3609.53417969 4386.45043945 C3633.49166471 4372.25728975 3657.32079374 4357.77624809 3680.63330078 4342.54541016 C3683.33546782 4340.78094581 3686.04071769 4339.02125868 3688.74609375 4337.26171875 C3719.25856964 4317.40678132 3749.40741482 4296.98747595 3778.84375 4275.56347656 C3781.01470987 4273.98933401 3783.19348371 4272.42666111 3785.375 4270.8671875 C3796.325846 4263.02824214 3807.05050412 4254.91671941 3817.73974609 4246.72558594 C3820.54032021 4244.58749371 3823.36079573 4242.47841203 3826.1875 4240.375 C3834.21851212 4234.3717898 3842.10094923 4228.1750446 3850 4222 C3850.65887207 4221.4858252 3851.31774414 4220.97165039 3851.99658203 4220.44189453 C3859.74708062 4214.39228357 3867.41251912 4208.25378779 3875 4202 C3876.83275076 4200.49928825 3878.66608895 4198.99929362 3880.5 4197.5 C3881.41007812 4196.75492188 3882.32015625 4196.00984375 3883.2578125 4195.2421875 C3885.06324411 4193.7659514 3886.87049141 4192.29193264 3888.6796875 4190.8203125 C3895.30311124 4185.42558186 3901.83783549 4179.93394959 3908.34716797 4174.40283203 C3910.50456752 4172.57175111 3912.66688968 4170.74653574 3914.82910156 4168.92114258 C3917.55587196 4166.61779145 3920.27855129 4164.30963495 3923 4162 C3923.57927246 4161.50854492 3924.15854492 4161.01708984 3924.75537109 4160.51074219 C3931.79520844 4154.53043786 3938.74155685 4148.47699241 3945.55078125 4142.234375 C3948.32499872 4139.70350994 3951.14707121 4137.23360609 3953.98046875 4134.76953125 C3957.1614573 4131.98232078 3960.2977231 4129.1459572 3963.4375 4126.3125 C3965.91265331 4124.07882507 3968.39368312 4121.85182284 3970.875 4119.625 C3976.08112883 4114.93867187 3981.24778173 4110.21009601 3986.40283203 4105.46777344 C3988.05692762 4103.94768437 3989.71392155 4102.43079637 3991.37109375 4100.9140625 C3996.71939089 4096.00940291 4001.98941856 4091.07174228 4007.0750885 4085.89247131 C4008.76180843 4084.23417737 4010.48299819 4082.71473874 4012.29467773 4081.19702148 C4019.18282932 4075.20394769 4025.52541081 4068.61800427 4031.97265625 4062.16015625 C4033.42404351 4060.70944381 4034.87557908 4059.25887975 4036.32725525 4057.80845642 C4039.35887609 4054.77830417 4042.38869567 4051.74636547 4045.41723633 4048.71313477 C4049.2825809 4044.84209345 4053.15239825 4040.9755596 4057.02358341 4037.11036015 C4060.01867737 4034.11889448 4063.01136729 4031.12503289 4066.00335503 4028.13046074 C4067.42865221 4026.70450056 4068.85468128 4025.2792715 4070.28148079 4023.85481453 C4079.78803188 4014.43315426 4079.78803188 4014.43315426 4088.7341156 4004.48606873 C4091.40342711 4001.35246478 4094.42866363 3998.5563012 4097.375 3995.6875 C4100.08306944 3992.91495272 4102.61096456 3990.03289965 4105.1484375 3987.10546875 C4108.78664713 3982.96834852 4112.60626815 3978.9991561 4116.39453125 3975 C4120.14899823 3971.02010953 4123.80570891 3966.97530689 4127.39257812 3962.84375 C4129.55721214 3960.36086481 4131.77556186 3957.9293206 4134 3955.5 C4140.53219821 3948.33027494 4146.86563698 3941.00301166 4153.16870117 3933.63232422 C4156.43549791 3929.81490967 4159.72186936 3926.0153891 4163.02148438 3922.22631836 C4168.03338306 3916.46895116 4172.96239942 3910.66438065 4177.765625 3904.73046875 C4180.26158819 3901.68033192 4182.8154731 3898.68421595 4185.375 3895.6875 C4189.67878205 3890.63863038 4193.80281966 3885.47212185 4197.87231445 3880.23339844 C4201.00723962 3876.21543499 4204.24580244 3872.3062996 4207.5625 3868.4375 C4212.4511392 3862.72249093 4217.05356895 3856.81403906 4221.60302734 3850.82666016 C4223.67483609 3848.11759461 4225.77517092 3845.43105636 4227.87402344 3842.74291992 C4239.77248212 3827.50154514 4251.53185482 3812.17284832 4262.79296875 3796.453125 C4265.55077847 3792.60864833 4268.35610277 3788.80144016 4271.17480469 3785.00146484 C4278.33347847 3775.35014482 4285.27796311 3765.56501377 4292.12890625 3755.69335938 C4294.13341062 3752.80796113 4296.14435308 3749.92712299 4298.15625 3747.046875 C4304.87064547 3737.42786801 4311.54714506 3727.79673267 4318 3718 C4319.11356818 3716.33667024 4320.22719161 3714.67337717 4321.34179688 3713.01074219 C4352.34034734 3666.71130722 4381.29855527 3619.08814139 4408.58496094 3570.51416016 C4409.82434371 3568.31209601 4411.07007052 3566.11387834 4412.3203125 3563.91796875 C4423.24701894 3544.69524398 4433.52543162 3525.11578243 4443.65625 3505.46484375 C4445.697271 3501.50775036 4447.75459218 3497.56078954 4449.84375 3493.62890625 C4464.72300756 3465.57724517 4478.39174279 3436.8753855 4491.35734558 3407.89454651 C4493.43619506 3403.24814215 4495.53675944 3398.61203751 4497.6484375 3393.98046875 C4504.73213026 3378.43091381 4511.62145496 3362.81544834 4518.15942383 3347.0269165 C4519.07703653 3344.81423859 4519.99833448 3342.60311512 4520.91992188 3340.39208984 C4536.7672305 3302.33610998 4551.95644594 3263.96478231 4565.03710938 3224.86035156 C4566.48492996 3220.55947275 4567.99132508 3216.2798265 4569.5 3212 C4570.34178042 3209.59847964 4571.1821898 3207.19648243 4572.02246094 3204.79443359 C4572.74391155 3202.73206503 4573.46601459 3200.66992466 4574.18847656 3198.60791016 C4580.55248131 3180.57893251 4580.55248131 3180.57893251 4586.17285156 3162.30981445 C4587.91694807 3156.15467037 4589.89664947 3150.08333492 4591.875 3144 C4594.98560048 3134.39412076 4597.82464838 3124.73889113 4600.5 3115.00341797 C4601.98128461 3109.61777012 4603.51026548 3104.25798848 4605.16333008 3098.92260742 C4608.70956831 3087.47367157 4611.6586063 3075.88048654 4614.60839844 3064.26733398 C4616.86580366 3055.38352579 4619.19825038 3046.52691477 4621.625 3037.6875 C4625.46538275 3023.54484472 4628.79843418 3009.29830797 4632 2995 C4632.31901276 2993.57796265 4632.31901276 2993.57796265 4632.64447021 2992.12719727 C4639.44650807 2961.77621393 4645.87626912 2931.38081333 4651.54470825 2900.79667664 C4652.37590557 2896.31225397 4653.22400076 2891.83204862 4654.1015625 2887.35644531 C4654.28323975 2886.42393951 4654.46491699 2885.49143372 4654.65209961 2884.53067017 C4654.99552508 2882.77210232 4655.34238838 2881.01420033 4655.69360352 2879.25717163 C4656.67913376 2874.19136609 4657.33862468 2869.1844127 4657.74731445 2864.03866577 C4658 2862 4658 2862 4659 2860 C4659.27926704 2858.46200224 4659.51373685 2856.91577797 4659.7265625 2855.3671875 C4659.86739258 2854.36131592 4660.00822266 2853.35544434 4660.15332031 2852.3190918 C4660.30897461 2851.1825415 4660.46462891 2850.04599121 4660.625 2848.875 C4660.98565071 2846.27454536 4661.34729139 2843.67425398 4661.7109375 2841.07421875 C4661.86018677 2840.00500938 4661.86018677 2840.00500938 4662.01245117 2838.91419983 C4662.80866956 2833.25446301 4663.66721202 2827.60554718 4664.5390625 2821.95703125 C4673.15782715 2765.75277767 4678.85137938 2709.22797099 4682.75646973 2652.51416016 C4682.98701145 2649.18742571 4683.22414595 2645.86124027 4683.46386719 2642.53515625 C4688.89912148 2566.69213618 4689.53116542 2490.40959005 4662.05912781 2160.86149597 C4661.10628116 2154.7656075 4660.2409318 2148.66183777 4659.42529297 2142.54589844 C4659.13098448 2140.01719468 4659.13098448 2140.01719468 4658 2138 C4657.72129123 2136.06618995 4657.4484176 2134.1313855 4657.20263672 2132.19311523 C4655.00657374 2114.97971249 4651.42301694 2098.00120899 4648 2081 C4647.81979309 2080.10345703 4647.63958618 2079.20691406 4647.45391846 2078.28320312 C4643.1157285 2056.71021877 4638.75281335 2035.14299035 4633.84375 2013.69140625 C4633.2153456 2010.942137 4632.59041116 2008.19219996 4631.96875 2005.44140625 C4626.56437924 1981.2741285 4626.56437924 1981.2741285 4620.31298828 1957.31713867 C4617.63777687 1947.84005996 4615.22738745 1938.29585534 4612.80419922 1928.75183105 C4610.35846632 1919.11921681 4607.78244378 1909.54229028 4605 1900 C4604.45291185 1898.09901966 4603.90602635 1896.19798099 4603.359375 1894.296875 C4595.39938435 1866.80562997 4586.80453596 1839.50878242 4577.95043945 1812.29370117 C4577.06437058 1809.56825368 4576.181579 1806.84175806 4575.29882812 1804.11523438 C4570.4911204 1789.30672313 4565.50080451 1774.56681977 4560 1760 C4559.51937169 1758.69454762 4559.04004477 1757.38861476 4558.5625 1756.08203125 C4546.13114507 1722.08878872 4532.98860541 1688.3832774 4519 1655 C4518.31188232 1653.35717041 4518.31188232 1653.35717041 4517.60986328 1651.68115234 C4512.50339215 1639.5098407 4507.32101234 1627.37107216 4502.08810425 1615.25363159 C4501.28361398 1613.39035326 4500.48076044 1611.52636851 4499.67797852 1609.66235352 C4493.58245018 1595.59046287 4486.9632002 1581.78488206 4480.25 1568 C4478.827222 1565.07465707 4477.40547918 1562.14881265 4475.984375 1559.22265625 C4475.63713379 1558.507715 4475.28989258 1557.79277374 4474.93212891 1557.0561676 C4472.52050678 1552.08568302 4470.13671244 1547.10255581 4467.76879883 1542.11108398 C4457.68945754 1520.87212566 4447.26094834 1499.80717851 4435.87109375 1479.23828125 C4432.74985368 1473.58619015 4429.77928948 1467.85926097 4426.8125 1462.125 C4422.46756768 1453.74667714 4417.97411126 1445.48280493 4413.29589844 1437.28710938 C4411.77939827 1434.61066371 4410.28352572 1431.9231874 4408.7890625 1429.234375 C4401.07215536 1415.35841878 4393.15011566 1401.62571096 4385 1388 C4384.226437 1386.7018977 4383.45298781 1385.40372756 4382.6796875 1384.10546875 C4380.46587175 1380.39591344 4378.23544264 1376.69655514 4376 1373 C4375.48856445 1372.15356934 4374.97712891 1371.30713867 4374.45019531 1370.43505859 C4366.44390701 1357.1967325 4358.32025441 1344.04315101 4350 1331 C4349.35708008 1329.99050293 4348.71416016 1328.98100586 4348.05175781 1327.94091797 C4345.95315045 1324.6468451 4343.85208599 1321.35435398 4341.75 1318.0625 C4341.10047363 1317.04430176 4340.45094727 1316.02610352 4339.78173828 1314.97705078 C4335.27118183 1307.9276594 4330.6578151 1300.9527488 4326 1294 C4324.66897016 1292.00020009 4323.33824095 1290.00020005 4322.0078125 1288 C4306.9624718 1265.43565675 4291.53200001 1243.14846402 4275.59570312 1221.20458984 C4274.00930343 1219.01285343 4272.43286229 1216.81430192 4270.859375 1214.61328125 C4263.02234684 1203.66685921 4254.91385768 1192.9457614 4246.72558594 1182.26025391 C4244.58749371 1179.45967979 4242.47841203 1176.63920427 4240.375 1173.8125 C4231.6453196 1162.14526555 4222.63303524 1150.70020666 4213.41210938 1139.41821289 C4210.10173866 1135.3666915 4206.85721378 1131.27371099 4203.6640625 1127.12890625 C4200.93874119 1123.64228627 4198.12295086 1120.23061591 4195.3125 1116.8125 C4193.07440644 1114.09049432 4190.84957816 1111.35805317 4188.625 1108.625 C4183.95007184 1102.91119891 4179.18304475 1097.27845716 4174.40283203 1091.65283203 C4172.57175111 1089.49543248 4170.74653574 1087.33311032 4168.92114258 1085.17089844 C4166.61779145 1082.44412804 4164.30963495 1079.72144871 4162 1077 C4161.50854492 1076.42072754 4161.01708984 1075.84145508 4160.51074219 1075.24462891 C4154.53043786 1068.20479156 4148.47699241 1061.25844315 4142.234375 1054.44921875 C4139.70350994 1051.67500128 4137.23360609 1048.85292879 4134.76953125 1046.01953125 C4131.98232078 1042.8385427 4129.1459572 1039.7022769 4126.3125 1036.5625 C4124.07882507 1034.08734669 4121.85182284 1031.60631688 4119.625 1029.125 C4114.93867187 1023.91887117 4110.21009601 1018.75221827 4105.46777344 1013.59716797 C4103.94768437 1011.94307238 4102.43079637 1010.28607845 4100.9140625 1008.62890625 C4096.00940291 1003.28060911 4091.07174228 998.01058144 4085.89247131 992.9249115 C4084.23417737 991.23819157 4082.71473874 989.51700181 4081.19702148 987.70532227 C4075.20394769 980.81717068 4068.61800427 974.47458919 4062.16015625 968.02734375 C4060.70944381 966.57595649 4059.25887975 965.12442092 4057.80845642 963.67274475 C4054.77830417 960.64112391 4051.74636547 957.61130433 4048.71313477 954.58276367 C4044.84209345 950.7174191 4040.9755596 946.84760175 4037.11036015 942.97641659 C4034.11889448 939.98132263 4031.12503289 936.98863271 4028.13046074 933.99664497 C4026.70450056 932.57134779 4025.2792715 931.14531872 4023.85481453 929.71851921 C4014.43315426 920.21196812 4014.43315426 920.21196812 4004.48606873 911.2658844 C4001.35246478 908.59657289 3998.5563012 905.57133637 3995.6875 902.625 C3992.91495272 899.91693056 3990.03289965 897.38903544 3987.10546875 894.8515625 C3982.96834852 891.21335287 3978.9991561 887.39373185 3975 883.60546875 C3971.01621231 879.84732528 3966.966461 876.18865793 3962.83056641 872.59863281 C3960.40915617 870.48401636 3958.04879549 868.30635229 3955.6875 866.125 C3952.08608829 862.83567762 3948.42692725 859.67982364 3944.625 856.625 C3940.42183313 853.23612187 3936.43817428 849.68740524 3932.5 846 C3927.79244618 841.59631492 3922.96328817 837.43923927 3917.93359375 833.40234375 C3914.45097326 830.55039754 3911.07208188 827.59190824 3907.6875 824.625 C3902.29697846 819.91205416 3896.7910127 815.40636303 3891.12963867 811.02392578 C3887.16545499 807.94582744 3883.31119657 804.76517159 3879.5 801.5 C3873.98108995 796.77847037 3868.31908649 792.27123956 3862.58984375 787.80859375 C3859.55167454 785.44023101 3856.54414024 783.0360758 3853.54394531 780.61987305 C3845.57800759 774.20542846 3837.48652399 767.96906057 3829.34228516 761.78320312 C3826.85237529 759.88761196 3824.36909877 757.9835647 3821.88671875 756.078125 C3811.44526608 748.07342865 3800.90871575 740.23262307 3790.20605469 732.58105469 C3787.19817518 730.42534113 3784.20260787 728.2528068 3781.20629883 726.08105469 C3772.60421594 719.84956626 3763.95294055 713.69107914 3755.25976562 707.58740234 C3752.84341857 705.89000729 3750.42956558 704.18909658 3748.015625 702.48828125 C3738.63172163 695.88667933 3729.19644041 689.38367756 3719.6171875 683.06884766 C3717.23667926 681.49549846 3714.86949288 679.90237525 3712.5 678.3125 C3659.78124377 643.1902187 3605.51507666 610.50150234 3550 580 C3548.48889648 579.16903809 3548.48889648 579.16903809 3546.94726562 578.32128906 C3532.14163615 570.19624849 3517.18105169 562.3887782 3502.16287231 554.66690063 C3498.56946707 552.81660864 3494.98849849 550.94480476 3491.41796875 549.05078125 C3464.08449465 534.56366192 3436.12106129 521.2860226 3407.89149475 508.6456604 C3403.38271516 506.62598234 3398.88583294 504.58165761 3394.39453125 502.5234375 C3355.33527582 484.65175099 3315.51403485 468.48625014 3275.30859375 453.3828125 C3270.87882639 451.71730908 3266.46895466 450.01121886 3262.07202148 448.26123047 C3252.42716383 444.42692509 3242.62865482 441.05665175 3232.80078125 437.72631836 C3226.53550297 435.59669615 3220.31450253 433.38789319 3214.12890625 431.0390625 C3206.0083122 427.96078866 3197.80647982 425.16532972 3189.5625 422.4375 C3188.84022217 422.19744232 3188.11794434 421.95738464 3187.3737793 421.71005249 C3178.3574142 418.71484069 3169.32823893 415.82471535 3160.1875 413.23046875 C3154.74880009 411.66523026 3149.38166648 409.87405186 3144 408.125 C3134.4048844 405.01810055 3124.76066469 402.18189458 3115.03637695 399.50878906 C3108.55500254 397.72568346 3102.11398059 395.84612606 3095.6875 393.875 C3086.61328729 391.10536078 3077.45128589 388.80262715 3068.23681641 386.55273438 C3060.53475791 384.64949704 3052.88766581 382.52353549 3045.2421875 380.40625 C3032.88685245 377.00523804 3020.51670707 373.90477947 3007.99194336 371.19091797 C3001.85870225 369.8614291 2995.75204342 368.47065115 2989.66186523 366.95629883 C2940.4044687 354.74640694 2890.11469288 345.86931318 2840 338 C2838.94377441 337.83338867 2837.88754883 337.66677734 2836.79931641 337.49511719 C2815.92528855 334.23206533 2794.96346557 331.61165666 2774 329 C2772.81132324 328.85175781 2771.62264648 328.70351563 2770.39794922 328.55078125 C2764.37745141 327.8045683 2758.35441919 327.083584 2752.328125 326.38574219 C2749.95024269 326.1101367 2747.57267145 325.83184194 2745.1953125 325.55175781 C2669.0470803 316.59364982 2592.26260076 312.26660732 2425 313 Z " fill="#FEFEFE" transform="translate(0,0)"/>
<path d="M0 0 C1.0120047 0.00126892 2.0240094 0.00253784 3.06668091 0.00384521 C41.17941313 0.09459785 78.76832612 4.20453013 115.625 14.1875 C116.85754517 14.50871826 116.85754517 14.50871826 118.11499023 14.83642578 C142.58661842 21.30516604 166.62276512 29.63829127 189.625 40.1875 C190.60033691 40.62916504 191.57567383 41.07083008 192.58056641 41.52587891 C243.12381838 64.52603959 287.97646944 97.34791266 327.14428711 136.52148438 C328.8167165 138.19171095 330.49703669 139.85372379 332.17773438 141.515625 C338.79354347 148.09744119 344.82299971 154.8690251 350.625 162.1875 C351.57199327 163.31229054 352.5252256 164.43189997 353.48828125 165.54296875 C372.98930288 188.09199695 389.10561786 213.20254305 403.625 239.1875 C404.31650146 240.42161621 404.31650146 240.42161621 405.02197266 241.68066406 C420.12042883 268.86126164 431.95450019 298.34812059 440.625 328.1875 C441.05377441 329.66186523 441.05377441 329.66186523 441.49121094 331.16601562 C464.25181891 410.89157891 466.55096706 499.69250578 440.30810547 586.98681641 C439.7247721 588.8660755 439.15935037 590.75087881 438.59765625 592.63671875 C424.50149194 639.88609353 402.30232402 687.25712734 372.00976562 726.390625 C370.48285198 728.37195159 368.98289312 730.37212038 367.484375 732.375 C360.53723446 741.62060607 353.2875765 750.52666936 345.625 759.1875 C344.85671875 760.05632813 344.0884375 760.92515625 343.296875 761.8203125 C341.08853652 764.29079188 338.86173231 766.74269957 336.625 769.1875 C336.15030273 769.70731445 335.67560547 770.22712891 335.18652344 770.76269531 C327.72460151 778.92580102 320.2987691 786.96754116 311.90234375 794.1875 C309.72743029 796.09754407 307.61038414 798.06084243 305.49804688 800.03955078 C299.12360134 805.98806368 292.45332144 811.42531805 285.53173828 816.72216797 C283.54133479 818.25179688 281.56506864 819.79848798 279.58984375 821.34765625 C201.61715005 882.1875 201.61715005 882.1875 171.625 882.1875 C171.674785 882.85295837 171.72457001 883.51841675 171.77586365 884.20404053 C173.66936525 910.09426454 174.59790999 936.01706343 175.55828857 961.95550537 C175.90045593 971.1762449 176.24974393 980.39671695 176.59927177 989.61717987 C176.71874074 992.78674484 176.83612473 995.95638123 176.95314026 999.1260376 C177.0271308 1001.1064974 177.101419 1003.08694611 177.17602539 1005.06738281 C177.21183747 1006.01987034 177.24764956 1006.97235786 177.28454685 1007.95370865 C177.45643481 1012.37986796 177.64996464 1016.80269228 177.90353394 1021.22497559 C177.97298422 1022.44119661 177.97298422 1022.44119661 178.04383755 1023.68198776 C178.12931216 1025.13385383 178.21903012 1026.58548456 178.31536198 1028.03667068 C178.6428616 1033.5277986 178.64725144 1039.00721456 178.63668919 1044.50593948 C178.63584537 1045.34146776 178.63500156 1046.17699603 178.63413218 1047.03784335 C178.63194022 1049.08772999 178.62858621 1051.13761533 178.625 1053.1875 C179.47030578 1053.18617492 180.31561157 1053.18484985 181.18653268 1053.18348461 C269.44494195 1053.04806667 357.70409967 1053.01552976 582.11328125 1053.80859375 C583.06541792 1053.81253122 584.01755459 1053.81646869 584.99854388 1053.82052547 C632.98827504 1054.01914817 680.97795981 1054.22815638 728.96763109 1054.44069763 C759.21497646 1054.57462413 789.46233849 1054.70405965 819.7097168 1054.83032227 C827.81730054 1054.86417062 835.92488428 1054.89802261 844.03246784 1054.93191433 C845.03220974 1054.93609331 846.03195163 1054.9402723 847.06198874 1054.94457792 C873.69394861 1055.05596365 900.32589432 1055.17063313 926.95783585 1055.28631264 C929.82643851 1055.29876993 932.69504117 1055.31122655 935.56364384 1055.32368189 C937.46409709 1055.33193424 939.36455033 1055.34018911 941.26500355 1055.34844652 C954.2928811 1055.40502585 967.32076333 1055.46037035 980.34865011 1055.51478143 C997.04693503 1055.58452241 1013.74520728 1055.65660011 1030.44346539 1055.732508 C1038.43554713 1055.76878174 1046.42762943 1055.80409492 1054.41972923 1055.83616829 C1072.2621203 1055.90827604 1090.10419463 1056.00140231 1107.94622223 1056.13738688 C1111.78247849 1056.16659821 1115.61873769 1056.1945416 1119.45501897 1056.22027937 C1128.6548278 1056.28231511 1137.85440499 1056.35453175 1147.05392255 1056.45114021 C1151.06235871 1056.49311242 1155.07069931 1056.53067712 1159.07927845 1056.55597948 C1162.8059829 1056.57979495 1166.53229052 1056.61763039 1170.25875489 1056.66598594 C1172.26807628 1056.6886464 1174.2775422 1056.69712661 1176.28697561 1056.70508257 C1194.93659762 1056.98879301 1207.5573103 1065.1198103 1220.51953125 1078.08203125 C1232.69181811 1091.13358036 1241.44520078 1109.9458282 1245.625 1127.1875 C1245.80546875 1127.87650391 1245.9859375 1128.56550781 1246.171875 1129.27539062 C1253.71512913 1158.91324385 1252.32877956 1194.51858289 1241.625 1223.1875 C1241.34527344 1223.94417969 1241.06554688 1224.70085937 1240.77734375 1225.48046875 C1232.12619518 1248.43784568 1218.69344278 1268.42005154 1195.875 1279.125 C1191.19146499 1280.87766153 1186.66437712 1281.70104198 1181.71484375 1282.20703125 C1180.97026413 1282.28878601 1180.22568451 1282.37054077 1179.45854187 1282.45477295 C1177.92149394 1282.62309784 1176.38414057 1282.78865656 1174.84649658 1282.95144653 C1171.5586468 1283.30080937 1168.2737281 1283.6756755 1164.98828125 1284.046875 C1163.00840113 1284.26628483 1161.02851878 1284.48567547 1159.04855347 1284.70431519 C1156.8233946 1284.95010397 1154.59833439 1285.19677146 1152.37329102 1285.44360352 C1145.0449539 1286.25632036 1137.71639867 1287.06705746 1130.38769531 1287.87646484 C1091.50288423 1292.171637 1052.63600875 1296.56490269 1013.81088257 1301.37161255 C994.59599894 1303.7458936 975.36263998 1305.94518975 956.125 1308.125 C932.2335362 1310.83261501 908.35954651 1313.65057597 884.49780273 1316.61083984 C865.08281611 1319.01861758 845.65792444 1321.33641124 826.22924805 1323.63085938 C823.77652736 1323.92055103 821.32380924 1324.21026441 818.87109375 1324.5 C817.66946091 1324.64191772 816.46782806 1324.78383545 815.2297821 1324.93005371 C807.37192537 1325.85927944 799.51552516 1326.79998301 791.66015625 1327.75 C790.62371979 1327.8752858 789.58728333 1328.00057159 788.5194397 1328.12965393 C787.49176483 1328.25388229 786.46408997 1328.37811066 785.40527344 1328.50610352 C764.78400337 1330.99869271 744.15302951 1333.3830875 723.51089478 1335.6965332 C709.61437286 1337.25612301 695.7362051 1338.88789044 681.87304688 1340.72143555 C671.40377545 1342.10267915 660.92359088 1343.37847775 650.4375 1344.625 C649.55198456 1344.73032043 648.66646912 1344.83564087 647.75411987 1344.94415283 C637.78853741 1346.12713917 627.82041528 1347.28533139 617.84765625 1348.40625 C616.95708527 1348.50635376 616.06651428 1348.60645752 615.1489563 1348.70959473 C613.34186016 1348.91261772 611.53476177 1349.11562059 609.72766113 1349.31860352 C608.82753296 1349.41971436 607.92740479 1349.5208252 607 1349.625 C606.09358765 1349.72675537 605.18717529 1349.82851074 604.2532959 1349.93334961 C588.87999493 1351.6631602 573.53110828 1353.55875216 558.184021 1355.50610352 C542.34493786 1357.51227429 526.49248894 1359.35853079 510.625 1361.125 C489.66304052 1363.45998841 468.73347199 1366.00830622 447.80810547 1368.64990234 C445.48014992 1368.94373788 443.15218776 1369.23752108 440.82421875 1369.53125 C439.69246216 1369.67406403 438.56070557 1369.81687805 437.39465332 1369.96401978 C422.80842707 1371.80008997 408.20874852 1373.52070092 393.6085968 1375.24171448 C386.8939941 1376.03439826 380.18116662 1376.84137402 373.46875 1377.65234375 C353.65302104 1380.04496331 333.83598917 1382.40611069 314 1384.625 C296.98229374 1386.52916815 279.98972211 1388.61115205 263 1390.75 C229.27896951 1394.9914818 229.27896951 1394.9914818 217.77471924 1396.36715698 C216.36724753 1396.53597287 214.95997052 1396.70642199 213.55291748 1396.87869263 C211.6608406 1397.10997362 209.76793682 1397.33445982 207.875 1397.55859375 C206.84890625 1397.68161865 205.8228125 1397.80464355 204.765625 1397.93139648 C202.28732087 1398.13349078 199.90938744 1398.21394545 197.42871094 1398.20350647 C195.54587402 1398.19558327 195.54587402 1398.19558327 193.625 1398.1875 C194.20506294 1412.93122115 194.78793938 1427.67482962 195.37350845 1442.41833305 C195.64582978 1449.2762396 195.91742044 1456.13417303 196.18701172 1462.9921875 C197.20557315 1488.89157584 198.23261284 1514.790634 199.40545654 1540.68356323 C199.45650243 1541.81122513 199.45650243 1541.81122513 199.50857955 1542.96166807 C199.65292139 1546.14972095 199.79732318 1549.33777112 199.94176075 1552.52581966 C201.98394157 1597.63962865 203.88487927 1642.7592819 205.76953125 1687.87988281 C205.80512645 1688.73200297 205.84072166 1689.58412313 205.8773955 1690.46206511 C206.82634457 1713.18044599 207.77280178 1735.89893049 208.71840613 1758.6174508 C209.28321447 1772.18690895 209.84854731 1785.75634517 210.41421509 1799.32576752 C210.45495003 1800.30294791 210.49568498 1801.2801283 210.53765432 1802.28692022 C210.70317042 1806.25743753 210.86868825 1810.22795478 211.03420891 1814.1984719 C212.57575228 1851.17730499 214.11586215 1888.15619766 215.65529497 1925.13511866 C217.01083775 1957.69657537 218.36766698 1990.25797824 219.72558594 2022.81933594 C221.26482049 2059.72854167 222.80321717 2096.63778219 224.34033871 2133.54707599 C224.5054859 2137.51253182 224.67063501 2141.47798758 224.83578491 2145.4434433 C224.87642373 2146.41924946 224.91706255 2147.39505563 224.95893285 2148.40043168 C225.52224675 2161.92623422 226.08604148 2175.45201663 226.65021204 2188.97778346 C227.59514985 2211.63258678 228.5387606 2234.28744501 229.48046875 2256.94238281 C229.53368564 2258.22241942 229.53368564 2258.22241942 229.58797762 2259.52831534 C231.59243785 2307.74351147 233.56005413 2355.95979512 235.40727234 2404.18132401 C236.25744217 2426.33424916 237.19553181 2448.48083248 238.25 2470.625 C238.31581819 2472.00970625 238.38162089 2473.39441323 238.44740868 2474.77912092 C238.56950698 2477.3490237 238.6917922 2479.91891729 238.81421661 2482.48880458 C239.50453731 2497.05195158 240.06289544 2511.61669922 240.5625 2526.1875 C241.37526298 2549.84146187 242.42079734 2573.48201089 243.5 2597.125 C244.97817935 2629.53919607 246.40113731 2661.95514844 247.75 2694.375 C247.79253403 2695.39625599 247.83506805 2696.41751198 247.87889099 2697.46971512 C248.93767463 2722.90403628 249.95679788 2748.33892485 250.86480713 2773.77911377 C251.38957504 2788.46548138 252.02403383 2803.14240068 252.75256348 2817.82000732 C253.44322561 2831.77264063 253.9968232 2845.72693705 254.5 2859.6875 C255.12256866 2876.95958059 255.8337811 2894.22620338 256.60546875 2911.4921875 C256.64941017 2912.47583031 256.69335159 2913.45947311 256.73862457 2914.47292328 C257.18320342 2924.41330935 257.63186422 2934.35350433 258.08594513 2944.29346085 C259.08805313 2966.25476877 260.00197587 2988.21176793 260.625 3010.1875 C261.26394196 3009.99096832 261.90288391 3009.79443665 262.56118774 3009.59194946 C267.60411738 3008.05704763 272.63304314 3006.64004671 277.7734375 3005.4609375 C279.10393168 3005.15287156 280.43441627 3004.84476422 281.76489258 3004.53662109 C282.45386627 3004.37828796 283.14283997 3004.21995483 283.85269165 3004.05682373 C309.06030092 2998.25387538 334.24906979 2992.24668832 359.06542969 2984.93212891 C364.01020554 2983.49359721 368.97593962 2982.12926522 373.9375 2980.75 C393.89925087 2975.17497252 413.75207569 2969.28209104 433.54663086 2963.14038086 C436.75331495 2962.14778129 439.96249959 2961.16354716 443.171875 2960.1796875 C449.19085302 2958.32855684 455.19217578 2956.42620062 461.1875 2954.5 C463.3567629 2953.80336071 465.52603407 2953.10674717 467.6953125 2952.41015625 C468.8184082 2952.04937988 469.94150391 2951.68860352 471.09863281 2951.31689453 C474.76952177 2950.14121381 478.44310496 2948.97425318 482.1171875 2947.80859375 C484.59896691 2947.01825609 487.08073793 2946.2278921 489.5625 2945.4375 C491.29318726 2944.89089722 491.29318726 2944.89089722 493.05883789 2944.33325195 C498.94393031 2942.4540618 504.71008481 2940.44950149 510.40844727 2938.05957031 C512.78550534 2937.12435152 515.17087747 2936.39469627 517.625 2935.6875 C520.91331091 2934.73826408 524.05574459 2933.65839716 527.21875 2932.3515625 C532.79859248 2930.09119057 538.45123951 2928.07281619 544.125 2926.0625 C557.37830966 2921.32291234 570.52167854 2916.32616804 583.625 2911.1875 C585.33453857 2910.51726807 585.33453857 2910.51726807 587.07861328 2909.83349609 C641.97935765 2888.23732428 695.75259597 2864.10484986 748.71112061 2838.1262207 C750.47250575 2837.26229547 752.23451454 2836.39964205 753.99658203 2835.53710938 C764.74700397 2830.26468646 775.33819493 2824.78172843 785.79931641 2818.95507812 C789.96790752 2816.63502141 794.14067935 2814.38960666 798.4375 2812.3125 C807.28037448 2807.97122829 815.7719317 2802.95477107 824.32275391 2798.07177734 C827.16463097 2796.45018876 830.00900865 2794.83310297 832.85476685 2793.21833801 C863.41891205 2775.87234418 893.27553093 2757.52266903 922.625 2738.1875 C923.31319824 2737.73600586 924.00139648 2737.28451172 924.71044922 2736.81933594 C943.03371259 2724.79424805 960.93589457 2712.12350229 978.625 2699.1875 C979.41922363 2698.60726074 980.21344727 2698.02702148 981.03173828 2697.42919922 C990.99601439 2690.14148157 1000.89216211 2682.7820629 1010.625 2675.1875 C1011.16898438 2674.76436523 1011.71296875 2674.34123047 1012.2734375 2673.90527344 C1024.73089489 2664.21055861 1037.02519506 2654.31312081 1049.03881836 2644.07250977 C1052.40388283 2641.20667257 1055.81147553 2638.4020827 1059.25 2635.625 C1064.01020053 2631.75170728 1068.55304784 2627.67990008 1073.0703125 2623.52734375 C1075.25197815 2621.52915152 1077.45511309 2619.56601111 1079.6875 2617.625 C1084.38559898 2613.53679622 1089.01087447 2609.37008861 1093.625 2605.1875 C1094.12112793 2604.73793945 1094.61725586 2604.28837891 1095.12841797 2603.82519531 C1100.49946819 2598.9516207 1105.82548903 2594.0625204 1110.90136719 2588.87866211 C1112.51795157 2587.2925318 1114.18459095 2585.84293146 1115.91796875 2584.38671875 C1121.96964116 2579.12047321 1127.57379003 2573.38760918 1133.23413086 2567.70874023 C1135.1829687 2565.75454376 1137.13709272 2563.80574853 1139.09179688 2561.85742188 C1144.67190996 2556.27997942 1150.21234876 2550.72373959 1155.32397461 2544.70678711 C1156.99132062 2542.75972495 1158.78159034 2540.96734381 1160.625 2539.1875 C1163.79589998 2536.05904036 1166.7506996 2532.81894648 1169.65234375 2529.44140625 C1171.59042229 2527.2270076 1173.57764645 2525.06383082 1175.57910156 2522.90673828 C1180.55012577 2517.54794002 1185.27459423 2512.07317808 1189.84765625 2506.3671875 C1191.625 2504.1875 1191.625 2504.1875 1193.625 2502.1875 C1186.83749796 2497.37766307 1179.76037654 2493.50112459 1172.3125 2489.8125 C1171.16313965 2489.24233154 1170.0137793 2488.67216309 1168.82958984 2488.0847168 C1158.94222453 2483.2399765 1148.95751681 2478.97885252 1138.625 2475.1875 C1137.52833008 2474.78402344 1136.43166016 2474.38054688 1135.30175781 2473.96484375 C1116.23615663 2466.97290533 1116.23615663 2466.97290533 1096.88110352 2460.84616089 C1095.36551695 2460.40369112 1093.85136311 2459.95628666 1092.33862305 2459.50418091 C1069.61430673 2452.7761262 1046.33753736 2448.52067715 1023.10650635 2443.96020508 C1017.68893488 2442.89494042 1012.27323735 2441.82024376 1006.85742188 2440.74609375 C999.38467709 2439.2647415 991.91129948 2437.78666666 984.4370594 2436.31287766 C974.8246034 2434.41713918 965.21458323 2432.50980311 955.60791016 2430.58496094 C954.56281564 2430.37557577 953.51772112 2430.16619061 952.44095707 2429.95046043 C947.47635782 2428.95534184 942.5120814 2427.95863765 937.54814148 2426.9602356 C935.78380565 2426.60612846 934.0194676 2426.25203236 932.25512695 2425.89794922 C931.46443377 2425.73842144 930.67374058 2425.57889366 929.85908699 2425.41453171 C925.79093913 2424.59883725 921.72302416 2423.84218159 917.625 2423.1875 C918.12 2422.1975 918.12 2422.1975 918.625 2421.1875 C921.18906839 2420.60343672 923.68636798 2420.14452077 926.28125 2419.75 C927.05754761 2419.62439697 927.83384521 2419.49879395 928.63366699 2419.36938477 C931.12951772 2418.96701777 933.62707291 2418.57674989 936.125 2418.1875 C938.5939719 2417.79613655 941.06250162 2417.40220325 943.53063965 2417.00561523 C945.06727058 2416.7594195 946.60443477 2416.51651969 948.14221191 2416.27758789 C952.63467721 2415.56616518 957.05108514 2414.66958742 961.48522949 2413.65820312 C964.55644783 2412.98260167 967.64611273 2412.47044095 970.75 2411.96875 C972.03390625 2411.75863281 973.3178125 2411.54851563 974.640625 2411.33203125 C976.63466921 2411.00900393 978.62885766 2410.68687685 980.62304688 2410.36474609 C987.28777121 2409.28508697 993.91925353 2408.19756232 1000.49609375 2406.66552734 C1004.67929813 2405.72622526 1008.90533508 2405.00470033 1013.125 2404.25 C1014.09783936 2404.07452637 1015.07067871 2403.89905273 1016.07299805 2403.71826172 C1021.52557343 2402.73666368 1026.98067273 2401.77013635 1032.4375 2400.8125 C1033.7929733 2400.57164021 1035.14844169 2400.33075273 1036.50390625 2400.08984375 C1040.07247635 2399.45667426 1043.64402141 2398.84231819 1047.21659851 2398.23219299 C1063.62770468 2395.41873205 1079.78488376 2392.43663218 1095.625 2387.1875 C1096.56085937 2386.88537598 1097.49671875 2386.58325195 1098.4609375 2386.27197266 C1129.82910255 2376.03718258 1159.95260012 2360.60658127 1186.625 2341.1875 C1187.27774902 2340.71344727 1187.93049805 2340.23939453 1188.60302734 2339.75097656 C1201.6130338 2330.2528153 1214.36799806 2320.30496074 1226.21875 2309.3828125 C1228.22092403 2307.55615373 1230.25211266 2305.78224737 1232.30444336 2304.01293945 C1236.41446235 2300.41938426 1240.30693224 2296.65063042 1244.16015625 2292.78515625 C1244.84250839 2292.10376083 1245.52486053 2291.42236542 1246.22789001 2290.72032166 C1247.65844437 2289.29044259 1249.08775767 2287.85932089 1250.51586914 2286.42700195 C1252.68199074 2284.25552289 1254.85340174 2282.08943675 1257.02539062 2279.92382812 C1258.42479987 2278.52375798 1259.82389884 2277.12337762 1261.22265625 2275.72265625 C1262.18075951 2274.76758934 1262.18075951 2274.76758934 1263.15821838 2273.79322815 C1267.51051876 2269.4185953 1271.6054651 2264.86830725 1275.625 2260.1875 C1276.59829959 2259.06973855 1277.57214601 2257.95245268 1278.546875 2256.8359375 C1284.51205428 2249.94831854 1290.26529443 2242.93601115 1295.8515625 2235.73828125 C1298.19517226 2232.72186088 1300.59138529 2229.75189913 1303.00097656 2226.78808594 C1331.11087002 2192.08564418 1355.19519985 2153.28076664 1376.625 2114.1875 C1377.64146424 2112.34870241 1378.6583762 2110.51015222 1379.67578125 2108.671875 C1382.69628608 2103.19702327 1385.67078614 2097.69837041 1388.625 2092.1875 C1389.16592285 2091.18090332 1389.7068457 2090.17430664 1390.26416016 2089.13720703 C1404.32641872 2062.85007182 1416.45740364 2035.89654213 1427.12402344 2008.06152344 C1430.10803691 2000.32270212 1433.22448993 1992.63523031 1436.3125 1984.9375 C1436.94418202 1983.36087599 1437.57577618 1981.78421677 1438.20727539 1980.20751953 C1439.67887372 1976.53378752 1441.15158743 1972.86050473 1442.625 1969.1875 C1443.615 1969.1875 1444.605 1969.1875 1445.625 1969.1875 C1451.55586551 1982.25794607 1457.47138988 1995.33526244 1463.37475586 2008.41815186 C1464.53309422 2010.98392448 1465.69303664 2013.54896457 1466.85351562 2016.11376953 C1487.72100566 2062.26613954 1508.40511623 2109.90471521 1521.06542969 2159.06933594 C1522.18172671 2163.29490008 1523.41356822 2167.48843102 1524.625 2171.6875 C1525.63290944 2175.18528438 1526.63024246 2178.68595346 1527.625 2182.1875 C1527.80820801 2182.82365234 1527.99141602 2183.45980469 1528.18017578 2184.11523438 C1531.42409928 2195.39434854 1534.19972157 2206.7059017 1536.625 2218.1875 C1536.97089475 2219.81006979 1537.31684284 2221.43262821 1537.6628418 2223.05517578 C1538.66301104 2227.76331311 1539.64778943 2232.47454847 1540.625 2237.1875 C1540.88877441 2238.45948242 1541.15254883 2239.73146484 1541.42431641 2241.04199219 C1544.26889502 2254.91582169 1546.59192151 2268.77362217 1548.23046875 2282.84082031 C1548.59457812 2285.92944113 1548.97608131 2289.01554358 1549.36213684 2292.10148621 C1556.84574737 2352.15673309 1558.17210546 2413.76042058 1547.11621094 2473.47949219 C1546.60710838 2476.28613513 1546.14615232 2479.09750508 1545.6953125 2481.9140625 C1542.35999144 2502.51498496 1537.18295075 2522.56462927 1531.5 2542.625 C1531.28817078 2543.37720825 1531.07634155 2544.1294165 1530.85809326 2544.90441895 C1528.51824085 2553.18354799 1526.00151929 2561.2607375 1522.625 2569.1875 C1521.91249865 2571.08177083 1521.20362972 2572.97741592 1520.5 2574.875 C1507.05826452 2609.79072754 1489.96340606 2640.62723241 1466.921875 2669.9609375 C1463.76137561 2673.99104175 1460.67984512 2678.07691594 1457.625 2682.1875 C1453.45052304 2680.79600768 1452.16471976 2677.84921473 1449.90625 2674.29296875 C1448.96366117 2672.8469273 1448.02094851 2671.40096657 1447.078125 2669.95507812 C1445.61162181 2667.68466896 1444.14874267 2665.41201515 1442.68945312 2663.13696289 C1434.56448919 2650.50788229 1425.77794785 2639.63858395 1414.625 2629.5 C1414.03307861 2628.95657959 1413.44115723 2628.41315918 1412.83129883 2627.85327148 C1408.55847925 2623.96161436 1404.17111473 2620.23908161 1399.66015625 2616.625 C1396.56695386 2614.1408838 1393.51237498 2611.61458021 1390.45947266 2609.08129883 C1380.80029924 2601.07539167 1371.13186341 2593.06754982 1360.625 2586.1875 C1360.52711182 2586.85491211 1360.42922363 2587.52232422 1360.32836914 2588.20996094 C1359.44311139 2591.9574804 1357.94705593 2595.33267501 1356.37109375 2598.828125 C1356.03874222 2599.57481445 1355.70639069 2600.32150391 1355.3639679 2601.09082031 C1354.26967644 2603.54254311 1353.16677593 2605.9902595 1352.0625 2608.4375 C1351.68395874 2609.28018433 1351.30541748 2610.12286865 1350.91540527 2610.99108887 C1343.45075662 2627.59705145 1335.61671605 2644.00728197 1327.54492188 2660.32550049 C1326.64715271 2662.14266104 1325.75266484 2663.96139561 1324.859375 2665.78076172 C1317.48048599 2680.7945161 1309.76203211 2695.5716337 1301.625 2710.1875 C1301.07199219 2711.1863623 1300.51898437 2712.18522461 1299.94921875 2713.21435547 C1287.73191842 2735.28064763 1274.94468235 2756.92880912 1261.47607422 2778.25439453 C1259.6984852 2781.07105959 1257.92881198 2783.89256373 1256.16015625 2786.71484375 C1247.31942795 2800.7714119 1238.05526249 2814.52071405 1228.625 2828.1875 C1228.00061035 2829.09306641 1227.3762207 2829.99863281 1226.73291016 2830.93164062 C1203.92015586 2863.94572115 1179.54785501 2896.05540046 1153.51000977 2926.60131836 C1150.64417257 2929.96638283 1147.8395827 2933.37397553 1145.0625 2936.8125 C1141.18687067 2941.57557218 1137.11265711 2946.12114249 1132.95703125 2950.640625 C1131.00094748 2952.77691749 1129.08312303 2954.93530657 1127.1875 2957.125 C1123.80268276 2961.01953089 1120.31645437 2964.81839625 1116.8215332 2968.61376953 C1113.8113053 2971.8847909 1110.8340525 2975.18242749 1107.875 2978.5 C1104.81839964 2981.91012175 1101.67076527 2985.17562087 1098.40052795 2988.37953186 C1096.66868747 2990.14301433 1095.06253189 2991.96542848 1093.45874023 2993.84545898 C1089.46418331 2998.43606151 1085.21733775 3002.7392981 1080.91015625 3007.03515625 C1080.09558456 3007.85068466 1079.28101288 3008.66621307 1078.4417572 3009.50645447 C1076.72940807 3011.21948008 1075.01581158 3012.93125965 1073.30102539 3014.6418457 C1070.69497985 3017.24253552 1068.09431478 3019.84851956 1065.49414062 3022.45507812 C1063.82063301 3024.12792486 1062.14681518 3025.80046134 1060.47265625 3027.47265625 C1059.7047023 3028.24263443 1058.93674835 3029.01261261 1058.14552307 3029.80592346 C1053.98526935 3033.94839796 1049.74153359 3037.92765 1045.28367615 3041.74900818 C1043.2978203 3043.47124757 1041.45040526 3045.2969017 1039.625 3047.1875 C1036.49654036 3050.35839998 1033.25644648 3053.3131996 1029.87890625 3056.21484375 C1027.6652439 3058.15227787 1025.50274978 3060.13879188 1023.34643555 3062.13964844 C1018.1619582 3066.9486782 1012.85130525 3071.50535187 1007.33984375 3075.94140625 C1004.51826505 3078.2758059 1001.81909288 3080.70740598 999.125 3083.1875 C993.79882071 3088.08244034 988.25705347 3092.65123948 982.625 3097.1875 C980.89467079 3098.6027465 979.1655219 3100.01943719 977.4375 3101.4375 C976.53515625 3102.17484375 975.6328125 3102.9121875 974.703125 3103.671875 C973.05957162 3105.0150836 971.41634638 3106.35869732 969.77539062 3107.70507812 C961.77781157 3114.26577723 953.73904804 3120.71757309 945.41308594 3126.86035156 C943.29085858 3128.43550556 941.1803777 3130.02577823 939.0703125 3131.6171875 C892.11471602 3167.01773606 842.9249542 3199.43034336 791.625 3228.1875 C791.0331189 3228.51985657 790.44123779 3228.85221313 789.8314209 3229.19464111 C772.37134697 3238.99673587 754.74247393 3248.42895196 736.90087891 3257.51806641 C733.95497921 3259.01933799 731.01427938 3260.53030943 728.07421875 3262.04296875 C716.08776797 3268.16547186 703.88045144 3273.7606485 691.61669922 3279.29785156 C662.68510179 3292.36546975 634.10838307 3306.17370912 605.625 3320.1875 C604.54040497 3320.72077911 604.54040497 3320.72077911 603.43389893 3321.26483154 C589.5851669 3328.07742137 575.79208033 3334.9493721 562.31811523 3342.48510742 C557.6022209 3345.12006836 552.85108337 3347.62380522 548 3350 C531.35240328 3358.18108015 515.14110135 3367.25721307 499.02685547 3376.43457031 C492.62191935 3380.07778557 486.17051603 3383.62294112 479.6875 3387.125 C467.84071383 3393.54218616 456.22728402 3400.34068716 444.625 3407.1875 C442.66539541 3408.3411982 440.70576037 3409.49484468 438.74609375 3410.6484375 C428.34282126 3416.77895318 417.95955096 3422.9418158 407.625 3429.1875 C406.79452148 3429.68830078 405.96404297 3430.18910156 405.10839844 3430.70507812 C346.67121875 3465.97140601 289.4560083 3504.1830011 235.625 3546.1875 C235.08101562 3546.61063477 234.53703125 3547.03376953 233.9765625 3547.46972656 C225.02982353 3554.43230971 216.20848802 3561.54311446 207.42919922 3568.71533203 C205.84226954 3570.01021511 204.25151263 3571.30040478 202.66015625 3572.58984375 C196.42481477 3577.65319741 190.30977886 3582.84580564 184.2265625 3588.08984375 C181.87717024 3590.11494119 179.5182486 3592.1277473 177.1484375 3594.12890625 C169.11589244 3600.92680889 161.3851772 3607.99487368 153.73608398 3615.2199707 C152.17927029 3616.67092034 150.60900626 3618.10747023 149.03149414 3619.53588867 C141.2264395 3626.60502507 133.72056134 3633.93750731 126.28686523 3641.39526367 C124.30110324 3643.38642777 122.3099926 3645.37213221 120.31835938 3647.35742188 C114.20645139 3653.46613585 108.20919053 3659.58634461 102.625 3666.1875 C101.00532183 3667.96320221 99.38088282 3669.73458307 97.75 3671.5 C93.71220678 3675.93246474 89.85192566 3680.46492177 86.08984375 3685.1328125 C84.28414825 3687.3706158 82.46520688 3689.59231899 80.62890625 3691.8046875 C52.04751258 3726.36246755 30.79255947 3764.75874324 12.16430664 3805.39672852 C8.79614593 3812.73709597 5.28365828 3819.98741682 1.625 3827.1875 C0.965 3827.1875 0.305 3827.1875 -0.375 3827.1875 C-2.73083875 3822.35478072 -5.08567934 3817.52157672 -7.43948364 3812.68786621 C-8.27096809 3810.98036984 -9.10257195 3809.2729316 -9.93429565 3807.56555176 C-14.36504255 3798.46827974 -18.78437253 3789.36705028 -23.1171875 3780.22265625 C-39.12803587 3746.44829267 -59.45991364 3715.89358864 -83.375 3687.1875 C-83.79894043 3686.67719238 -84.22288086 3686.16688477 -84.65966797 3685.64111328 C-90.4884462 3678.63678314 -96.46571383 3671.80929388 -102.671875 3665.13671875 C-104.67517138 3662.97587908 -106.60583177 3660.76319172 -108.52661133 3658.52880859 C-112.39700702 3654.10031434 -116.48896002 3649.92912283 -120.65234375 3645.77734375 C-121.42252335 3645.00620743 -122.19270294 3644.23507111 -122.98622131 3643.44056702 C-124.60441373 3641.82169847 -126.22385212 3640.20407449 -127.84448242 3638.58764648 C-130.30567232 3636.13181282 -132.76147809 3633.67068635 -135.21679688 3631.20898438 C-136.79915867 3629.62728347 -138.38183067 3628.04589283 -139.96484375 3626.46484375 C-140.68905014 3625.73861313 -141.41325653 3625.01238251 -142.15940857 3624.2641449 C-146.18307301 3620.25866304 -150.29714166 3616.41947868 -154.60443115 3612.71995544 C-157.36965924 3610.32660664 -160.02071891 3607.81421269 -162.6875 3605.3125 C-167.55739812 3600.77723456 -172.57154524 3596.50069449 -177.76171875 3592.33203125 C-180.37347623 3590.18875044 -182.87865302 3587.9636967 -185.375 3585.6875 C-190.5500993 3580.98286428 -195.93641197 3576.58231861 -201.375 3572.1875 C-202.59442517 3571.18832343 -203.81313577 3570.18827435 -205.03125 3569.1875 C-213.23458458 3562.46105262 -221.56157708 3555.92863593 -230.01171875 3549.515625 C-233.78905688 3546.64529171 -237.52862702 3543.72916404 -241.26220703 3540.80224609 C-248.88471862 3534.8301191 -256.60686161 3529.06768438 -264.52636719 3523.49755859 C-267.27963553 3521.54641782 -270.00800895 3519.56141254 -272.73852539 3517.57861328 C-291.97794247 3503.61689876 -311.60176663 3490.28496298 -331.40971375 3477.14785767 C-334.70944385 3474.95926348 -338.00670478 3472.76715916 -341.29785156 3470.56567383 C-348.98361579 3465.42494278 -356.70531381 3460.3499113 -364.5 3455.375 C-365.57056641 3454.69123291 -366.64113281 3454.00746582 -367.74414062 3453.30297852 C-385.20653312 3442.17419681 -402.88743195 3431.42953635 -420.66357422 3420.81054688 C-422.90582131 3419.46834818 -425.14424394 3418.12039269 -427.37890625 3416.765625 C-438.54611235 3410.00021639 -449.87542328 3403.51404228 -461.19775391 3397.01269531 C-464.03328493 3395.38380105 -466.86657455 3393.7510942 -469.69921875 3392.1171875 C-493.65896936 3378.32592612 -517.96561447 3365.16199997 -542.375 3352.1875 C-543.6122583 3351.52838623 -543.6122583 3351.52838623 -544.87451172 3350.85595703 C-577.98559786 3333.23173405 -611.45000449 3316.18879805 -645.375 3300.1875 C-646.2753598 3299.76277405 -646.2753598 3299.76277405 -647.19390869 3299.32946777 C-661.36647062 3292.64601454 -675.55378601 3285.99800337 -689.8125 3279.5 C-718.86609196 3266.23645663 -747.7285098 3252.28940611 -775.625 3236.72070312 C-778.54727537 3235.09145159 -781.47652858 3233.47519464 -784.40625 3231.859375 C-804.99101909 3220.46558543 -825.14453952 3208.39087958 -844.96777344 3195.72070312 C-847.52719017 3194.09056752 -850.09488253 3192.47407528 -852.6640625 3190.859375 C-871.64734416 3178.90237292 -890.12282424 3166.22902894 -908.375 3153.1875 C-909.10138672 3152.66978027 -909.82777344 3152.15206055 -910.57617188 3151.61865234 C-921.02204407 3144.16475699 -931.29654014 3136.51606042 -941.45117188 3128.67041016 C-943.21769351 3127.30875376 -944.98993774 3125.95513852 -946.765625 3124.60546875 C-954.82866502 3118.45889021 -962.70588346 3112.10223657 -970.55029297 3105.68017578 C-972.15723696 3104.36563798 -973.76779191 3103.05551698 -975.37890625 3101.74609375 C-981.87548983 3096.45993622 -988.28525283 3091.07649069 -994.66162109 3085.64648438 C-995.82011347 3084.65999956 -996.9793127 3083.67434435 -998.13916016 3082.68945312 C-1005.18039156 3076.7085438 -1012.12840512 3070.65512554 -1018.9375 3064.41015625 C-1021.01772725 3062.51328236 -1023.12056898 3060.65357057 -1025.25 3058.8125 C-1031.07926352 3053.73691904 -1036.71653261 3048.45136532 -1042.375 3043.1875 C-1042.99015976 3042.61590652 -1043.60531952 3042.04431305 -1044.23912048 3041.45539856 C-1054.91663694 3031.51907331 -1065.35449362 3021.366441 -1075.65380859 3011.0390625 C-1078.02976675 3008.65766511 -1080.41113331 3006.28176757 -1082.79296875 3003.90625 C-1084.33365462 3002.36490441 -1085.87403084 3000.82324924 -1087.4140625 2999.28125 C-1088.11205963 2998.5852771 -1088.81005676 2997.8893042 -1089.52920532 2997.17224121 C-1093.44229055 2993.24061729 -1097.17837524 2989.21268485 -1100.78182983 2984.99475098 C-1102.41130145 2983.14632058 -1104.11584802 2981.41225904 -1105.875 2979.6875 C-1108.84557406 2976.76282885 -1111.58229119 2973.70130439 -1114.30078125 2970.54296875 C-1116.38942757 2968.17111615 -1118.53048105 2965.85844525 -1120.68725586 2963.54882812 C-1125.73254045 2958.14491137 -1130.53287206 2952.63527668 -1135.1640625 2946.8671875 C-1137.4843495 2944.05496685 -1139.90571134 2941.36952737 -1142.375 2938.6875 C-1147.26994034 2933.36132071 -1151.83873948 2927.81955347 -1156.375 2922.1875 C-1157.7902465 2920.45717079 -1159.20693719 2918.7280219 -1160.625 2917 C-1161.36234375 2916.09765625 -1162.0996875 2915.1953125 -1162.859375 2914.265625 C-1164.2025836 2912.62207162 -1165.54619732 2910.97884638 -1166.89257812 2909.33789062 C-1173.01293091 2901.87709956 -1179.06598757 2894.39772806 -1184.8046875 2886.63671875 C-1187.55959463 2882.91839034 -1190.38065433 2879.25124592 -1193.19506836 2875.57788086 C-1199.63509241 2867.16716341 -1205.97125972 2858.71409308 -1212.06309509 2850.0480957 C-1213.37362145 2848.18945511 -1214.69141581 2846.33618501 -1216.01123047 2844.48413086 C-1223.62221584 2833.78557589 -1230.98455177 2822.93552253 -1238.25 2812 C-1238.81937286 2811.1438913 -1239.38874573 2810.28778259 -1239.97537231 2809.4057312 C-1258.78964895 2781.10512077 -1276.62683974 2752.29750708 -1293.19165039 2722.61743164 C-1295.56287697 2718.36893312 -1297.97842146 2714.1629512 -1300.50390625 2710.00390625 C-1302.87647442 2706.0750468 -1304.99356309 2702.12739648 -1307 2698 C-1310.25146112 2691.3817834 -1313.63290232 2684.84001388 -1317.0625 2678.3125 C-1331.20588219 2651.2712477 -1344.39790892 2623.84804634 -1356.3125 2595.75 C-1356.63645752 2594.9876001 -1356.96041504 2594.2252002 -1357.29418945 2593.43969727 C-1359.375 2588.44279205 -1359.375 2588.44279205 -1359.375 2586.1875 C-1369.66505384 2593.78188814 -1379.721701 2601.59747107 -1389.59423828 2609.72705078 C-1391.18892725 2611.03489688 -1392.79491954 2612.3289321 -1394.40234375 2613.62109375 C-1400.35128617 2618.40926692 -1406.00758199 2623.43694524 -1411.59765625 2628.6328125 C-1413.85777668 2630.71174184 -1416.15084321 2632.71175043 -1418.5 2634.6875 C-1428.33041607 2643.32205102 -1435.22776817 2653.13948501 -1442.09082031 2664.14550781 C-1443.96878874 2667.13169182 -1445.91655115 2670.06591363 -1447.875 2673 C-1448.78765625 2674.37091797 -1448.78765625 2674.37091797 -1449.71875 2675.76953125 C-1451.21636461 2677.95590729 -1452.76560958 2680.08253508 -1454.375 2682.1875 C-1458.60319741 2680.77810086 -1460.23674119 2677.67354116 -1462.75 2674.1875 C-1463.82824724 2672.71528099 -1464.90771482 2671.24395513 -1465.98828125 2669.7734375 C-1466.54596191 2669.01256836 -1467.10364258 2668.25169922 -1467.67822266 2667.46777344 C-1469.30894064 2665.27627617 -1470.97679881 2663.12163298 -1472.66796875 2660.9765625 C-1495.5785268 2631.88607037 -1511.36516526 2597.78197186 -1523.40820312 2562.94238281 C-1524.22294166 2560.62078947 -1525.07037403 2558.31973645 -1525.953125 2556.0234375 C-1534.49599774 2533.57564541 -1539.78722947 2509.49451219 -1543.90039062 2485.89111328 C-1544.3247513 2483.47374181 -1544.77255908 2481.06278437 -1545.234375 2478.65234375 C-1547.52213628 2466.57410099 -1549.04381165 2454.4042927 -1550.375 2442.1875 C-1550.51470215 2440.94226562 -1550.6544043 2439.69703125 -1550.79833984 2438.4140625 C-1556.41781866 2386.70215798 -1554.37537437 2333.81103011 -1546.83935547 2282.38964844 C-1546.41041577 2279.43172359 -1546.01244033 2276.47191542 -1545.62890625 2273.5078125 C-1542.94234463 2253.06198277 -1538.4036354 2232.93638265 -1533.95263672 2212.81542969 C-1533.40846705 2210.33975668 -1532.87594739 2207.8619153 -1532.34765625 2205.3828125 C-1530.26164583 2195.66335648 -1527.79783551 2186.10163585 -1525.05029297 2176.54882812 C-1524.35687689 2174.12412808 -1523.67902448 2171.6954789 -1523.00390625 2169.265625 C-1517.61967634 2149.98493644 -1511.4461545 2130.98670248 -1504.75 2112.125 C-1504.52615631 2111.49426575 -1504.30231262 2110.86353149 -1504.07168579 2110.21368408 C-1498.26354158 2093.88363232 -1492.08241497 2077.75723684 -1485.4375 2061.75 C-1485.07083221 2060.86475647 -1484.70416443 2059.97951294 -1484.3263855 2059.06744385 C-1477.84169998 2043.43569754 -1470.95794871 2028.01574951 -1463.86975098 2012.65045166 C-1461.12602341 2006.68423969 -1458.52232094 2000.6613082 -1455.9375 1994.625 C-1452.08057124 1985.63449191 -1447.88511233 1976.86757653 -1443.375 1968.1875 C-1440.04577548 1969.85211226 -1439.42757402 1973.58665275 -1438.13671875 1976.91015625 C-1437.82009277 1977.70908798 -1437.5034668 1978.50801971 -1437.17724609 1979.3311615 C-1436.49243954 1981.06116133 -1435.8107104 1982.79238175 -1435.13168335 1984.5246582 C-1434.05258639 1987.27526972 -1432.96387144 1990.02188945 -1431.87231445 1992.76757812 C-1429.11902374 1999.69721124 -1426.37453301 2006.63028145 -1423.65625 2013.57373047 C-1410.76227113 2046.49244363 -1395.51098471 2078.26946428 -1378.375 2109.1875 C-1377.21569728 2111.30574416 -1376.05684089 2113.42423264 -1374.8984375 2115.54296875 C-1354.65566228 2152.3560688 -1331.61046233 2188.50868328 -1305.63574219 2221.57958984 C-1304.31582099 2223.26297502 -1303.00512883 2224.95327453 -1301.6953125 2226.64453125 C-1296.71564224 2233.05392017 -1291.62579265 2239.34558936 -1286.34863281 2245.51269531 C-1283.56086245 2248.77135946 -1280.85638624 2252.07986893 -1278.1875 2255.4375 C-1267.47896608 2268.51947861 -1255.30137612 2280.3551149 -1243.375 2292.3125 C-1242.7909137 2292.89926514 -1242.20682739 2293.48603027 -1241.6050415 2294.09057617 C-1235.37331803 2300.34397331 -1229.13411588 2306.49797566 -1222.375 2312.1875 C-1221.36507151 2313.06416742 -1220.35591263 2313.9417225 -1219.34765625 2314.8203125 C-1210.61872026 2322.29556238 -1201.59812911 2329.3328671 -1192.375 2336.1875 C-1191.71048828 2336.68362793 -1191.04597656 2337.17975586 -1190.36132812 2337.69091797 C-1177.62051975 2347.13919335 -1164.094657 2355.24921807 -1150.375 2363.1875 C-1149.28058594 2363.82196045 -1149.28058594 2363.82196045 -1148.1640625 2364.46923828 C-1118.60460579 2381.41314115 -1086.2711124 2391.20152368 -1052.8828125 2396.87890625 C-1046.16515085 2398.02878875 -1039.47355674 2399.29900559 -1032.78034973 2400.58280945 C-1022.09277616 2402.63058403 -1011.39076305 2404.59864584 -1000.6875 2406.5625 C-999.62694397 2406.75725922 -998.56638794 2406.95201843 -997.47369385 2407.15267944 C-983.90633727 2409.64288724 -970.33479117 2412.10665363 -956.75 2414.5 C-956.06975769 2414.62014465 -955.38951538 2414.74028931 -954.68865967 2414.86407471 C-947.87208188 2416.06731472 -941.05277596 2417.24712599 -934.22265625 2418.37109375 C-933.13098145 2418.55309326 -932.03930664 2418.73509277 -930.91455078 2418.92260742 C-928.91290989 2419.25484893 -926.91003449 2419.57977514 -924.90576172 2419.89575195 C-924.04869629 2420.03843506 -923.19163086 2420.18111816 -922.30859375 2420.328125 C-921.1956897 2420.50649902 -921.1956897 2420.50649902 -920.06030273 2420.68847656 C-919.50415283 2420.8531543 -918.94800293 2421.01783203 -918.375 2421.1875 C-918.045 2421.8475 -917.715 2422.5075 -917.375 2423.1875 C-930.80955173 2425.90100717 -944.24419961 2428.61403777 -957.67895794 2431.32652187 C-965.1355323 2432.83202476 -972.59203826 2434.33786577 -980.04848862 2435.8439827 C-984.87538676 2436.81884383 -989.70237525 2437.79325727 -994.52936554 2438.76766205 C-998.141155 2439.49698956 -1001.75280109 2440.22702419 -1005.36444092 2440.95709229 C-1016.68345856 2443.24358474 -1028.00498563 2445.5154625 -1039.33496094 2447.74707031 C-1041.37817503 2448.15080069 -1043.42137304 2448.55461249 -1045.46455383 2448.95851135 C-1049.18589695 2449.69410538 -1052.90847161 2450.42290387 -1056.63200378 2451.14732361 C-1092.00844263 2458.09728608 -1126.56256429 2469.24992295 -1159.375 2484.1875 C-1160.49817627 2484.69144287 -1160.49817627 2484.69144287 -1161.64404297 2485.20556641 C-1172.22760778 2489.96480592 -1182.34517218 2495.35589083 -1192.375 2501.1875 C-1187.8156296 2507.64660806 -1182.64461404 2513.32822834 -1177.2578125 2519.08984375 C-1175.06258936 2521.43823841 -1172.91485148 2523.81756918 -1170.8125 2526.25 C-1166.61184084 2531.09536465 -1162.27028466 2535.81010842 -1157.91601562 2540.51708984 C-1156.41171083 2542.14770667 -1154.91669636 2543.78647355 -1153.421875 2545.42578125 C-1144.35675737 2555.29169943 -1134.90147059 2564.76939943 -1125.4375 2574.25 C-1124.75578735 2574.93430084 -1124.07407471 2575.61860168 -1123.3717041 2576.32363892 C-1113.9281002 2585.8738586 -1113.9281002 2585.8738586 -1103.93725586 2594.83959961 C-1102.15870929 2596.37411369 -1100.51941019 2598.0108084 -1098.875 2599.6875 C-1095.95032885 2602.65807406 -1092.88880439 2605.39479119 -1089.73046875 2608.11328125 C-1087.35852946 2610.20200391 -1085.04577417 2612.34313403 -1082.73608398 2614.5 C-1077.31020441 2619.56573732 -1071.77905947 2624.39190954 -1065.98828125 2629.04296875 C-1063.37652377 2631.18624956 -1060.87134698 2633.4113033 -1058.375 2635.6875 C-1053.73062677 2639.91031823 -1048.92108208 2643.88347656 -1044.04150391 2647.83007812 C-1042.13715888 2649.38122936 -1040.24576869 2650.94738929 -1038.35546875 2652.515625 C-1030.38210404 2659.12768354 -1022.35706929 2665.62292668 -1014.09863281 2671.87744141 C-1012.21339289 2673.31033056 -1010.33668065 2674.75392176 -1008.4609375 2676.19921875 C-997.87575249 2684.34673925 -987.16452501 2692.3129228 -976.375 2700.1875 C-975.60478516 2700.75001465 -974.83457031 2701.3125293 -974.04101562 2701.89208984 C-941.20498794 2725.8379229 -907.15541834 2748.17542302 -872.375 2769.1875 C-871.58947754 2769.66396973 -870.80395508 2770.14043945 -869.99462891 2770.63134766 C-858.11169767 2777.83708118 -846.11664736 2784.82206534 -834.02929688 2791.67871094 C-830.46218047 2793.70637644 -826.90346822 2795.7485725 -823.34423828 2797.79003906 C-803.1257793 2809.40991439 -803.1257793 2809.40991439 -782.44360352 2820.16918945 C-777.58003441 2822.56700641 -772.78533032 2825.07517164 -768 2827.625 C-744.82499606 2839.90491393 -721.25550681 2851.43262015 -697.37713623 2862.27661133 C-695.23842582 2863.24963557 -693.10173164 2864.22699114 -690.96533203 2865.20507812 C-639.03542486 2888.96471439 -586.16551002 2910.79858442 -532.30273438 2929.796875 C-528.59589105 2931.10592076 -524.89860584 2932.44043002 -521.203125 2933.78125 C-502.37620633 2940.60042784 -483.39956093 2946.94595296 -464.375 2953.1875 C-463.22508575 2953.56479248 -463.22508575 2953.56479248 -462.05194092 2953.94970703 C-456.76630165 2955.68254863 -451.47769071 2957.4061097 -446.1875 2959.125 C-445.16846588 2959.45707962 -445.16846588 2959.45707962 -444.12884521 2959.79586792 C-429.93848153 2964.41493413 -415.63641559 2968.59770181 -401.25 2972.5625 C-393.06147602 2974.83163917 -384.92548905 2977.22491782 -376.8125 2979.75 C-367.05191076 2982.77603575 -357.21166444 2985.32714596 -347.28125 2987.73046875 C-343.00644945 2988.76956853 -338.75573217 2989.87945421 -334.5078125 2991.0234375 C-325.56376147 2993.42398812 -316.58324853 2995.67304551 -307.59814453 2997.91430664 C-304.77462435 2998.61885552 -301.9517372 2999.32589849 -299.12890625 3000.03320312 C-288.72977197 3002.63338229 -278.3208731 3005.18005069 -267.87924194 3007.60484314 C-266.64085068 3007.89531273 -266.64085068 3007.89531273 -265.37744141 3008.19165039 C-264.65054108 3008.36048233 -263.92364075 3008.52931427 -263.17471313 3008.70326233 C-261.375 3009.1875 -261.375 3009.1875 -259.375 3010.1875 C-259.33012451 3008.8984375 -259.28524902 3007.609375 -259.23901367 3006.28125 C-258.23163877 2977.47521996 -257.13827412 2948.67357007 -255.9375 2919.875 C-255.90590664 2919.11687893 -255.87431328 2918.35875786 -255.84176254 2917.57766342 C-255.13324507 2900.59460032 -254.40439563 2883.61260186 -253.62109375 2866.6328125 C-253.59025192 2865.96418623 -253.5594101 2865.29555996 -253.52763367 2864.60667229 C-253.27966515 2859.23503853 -253.03093565 2853.86343993 -252.7818985 2848.49185562 C-251.54560348 2821.80849649 -250.47883849 2795.11966949 -249.46484375 2768.42700195 C-248.63200061 2746.52032589 -247.73498837 2724.61678326 -246.81549072 2702.71358013 C-246.28849831 2690.14764373 -245.77001241 2677.58135674 -245.25085753 2665.01509476 C-244.84146808 2655.1075277 -244.43045541 2645.20002789 -244.01948643 2635.29252625 C-243.69716374 2627.52097826 -243.37540369 2619.74940773 -243.05493164 2611.9777832 C-242.67506446 2602.76766908 -242.29358917 2593.55762264 -241.91015625 2584.34765625 C-241.87877918 2583.59377853 -241.8474021 2582.8399008 -241.81507421 2582.0631783 C-240.74556223 2556.38776954 -239.59647353 2530.71657661 -238.37928772 2505.04774475 C-237.59343568 2488.40996316 -236.91129474 2471.77055017 -236.3125 2455.125 C-236.27022781 2453.95214951 -236.22795563 2452.77929901 -236.18440247 2451.57090759 C-236.06670909 2448.30118641 -235.94933827 2445.03145381 -235.83203125 2441.76171875 C-235.42059443 2430.31889779 -234.97710223 2418.87777022 -234.5 2407.4375 C-234.46121735 2406.50632355 -234.42243469 2405.57514709 -234.38247681 2404.61575317 C-233.86049971 2392.14481437 -233.30957391 2379.67521564 -232.74612379 2367.20609212 C-231.01842096 2328.9628509 -229.32562147 2290.71994977 -227.858325 2252.46571589 C-226.15703906 2208.15763202 -224.34711395 2163.85419534 -222.50585938 2119.55175781 C-222.47380409 2118.7803532 -222.4417488 2118.00894858 -222.40872215 2117.21416806 C-221.5617519 2096.83238934 -220.71246442 2076.45070744 -219.8622233 2056.06906493 C-219.3551291 2043.91291183 -218.84856454 2031.75673675 -218.34233093 2019.60054779 C-218.30575503 2018.72226775 -218.26917912 2017.8439877 -218.23149486 2016.93909311 C-218.08285541 2013.36987712 -217.93421768 2009.80066106 -217.78558279 2006.23144488 C-216.40491205 1973.0771895 -215.02281512 1939.92299373 -213.64003279 1906.76882636 C-212.42302408 1877.58909917 -211.2073084 1848.40931838 -209.99267578 1819.22949219 C-208.61362129 1786.09976887 -207.23372999 1752.97008057 -205.85256243 1719.84044528 C-205.70426311 1716.28318459 -205.55596569 1712.72592383 -205.40766907 1709.16866302 C-205.3711797 1708.29339262 -205.33469033 1707.41812222 -205.29709522 1706.51632847 C-204.79151661 1694.38870878 -204.28641847 1682.26106917 -203.7816967 1670.13341379 C-202.93736227 1649.84571506 -202.09177015 1629.55806914 -201.24414062 1609.27050781 C-201.19629122 1608.12509628 -201.19629122 1608.12509628 -201.14747517 1606.95654512 C-199.35876716 1564.14143936 -197.53478722 1521.32814477 -195.59329987 1478.51964188 C-194.38037506 1451.74718724 -193.31104146 1424.97122288 -192.375 1398.1875 C-193.39408447 1398.14141602 -194.41316895 1398.09533203 -195.46313477 1398.04785156 C-205.35713283 1397.5580548 -215.10535657 1396.59217623 -224.91928101 1395.26147461 C-229.16828744 1394.68627852 -233.42027325 1394.13375247 -237.671875 1393.578125 C-238.55360886 1393.46243164 -239.43534271 1393.34673828 -240.34379578 1393.22753906 C-249.90830868 1391.97709524 -259.48371358 1390.82267223 -269.0625 1389.6875 C-270.36859726 1389.53235931 -270.36859726 1389.53235931 -271.70108032 1389.37408447 C-281.41070087 1388.22235091 -291.12296576 1387.09664901 -300.83984375 1386.0078125 C-301.71019257 1385.91023651 -302.58054138 1385.81266052 -303.4772644 1385.71212769 C-304.79127731 1385.56482712 -304.79127731 1385.56482712 -306.13183594 1385.41455078 C-307.92122865 1385.21390903 -309.71061663 1385.01322509 -311.5 1384.8125 C-312.39690552 1384.71193298 -313.29381104 1384.61136597 -314.21789551 1384.50775146 C-331.11423584 1382.60765438 -347.98165036 1380.4997455 -364.84970093 1378.36480713 C-383.48995019 1376.00933176 -402.14373018 1373.80443323 -420.8125 1371.6875 C-440.57430508 1369.44535663 -460.32422696 1367.12848228 -480.0625 1364.6875 C-481.22800385 1364.54345734 -482.39350769 1364.39941467 -483.59432983 1364.25100708 C-488.30041791 1363.66924144 -493.00646374 1363.08713569 -497.71244812 1362.50453186 C-511.01428742 1360.85870863 -524.31882821 1359.23540289 -537.625 1357.625 C-539.42954147 1357.40651901 -539.42954147 1357.40651901 -541.27053833 1357.18362427 C-559.77292905 1354.94725253 -578.28659522 1352.82610681 -596.80813599 1350.75509644 C-612.4073808 1349.00822051 -627.98954316 1347.15489776 -643.5625 1345.1875 C-644.54298309 1345.06365936 -645.52346619 1344.93981873 -646.53366089 1344.81222534 C-647.51311676 1344.68848541 -648.49257263 1344.56474548 -649.50170898 1344.43725586 C-651.48030073 1344.1872956 -653.45889774 1343.93737699 -655.4375 1343.6875 C-656.41731339 1343.56375504 -657.39712677 1343.44001007 -658.40663147 1343.31251526 C-669.62065141 1341.89948677 -680.84053747 1340.53584979 -692.0625 1339.1875 C-693.08641846 1339.06441467 -694.11033691 1338.94132935 -695.1652832 1338.81451416 C-712.92731742 1336.68378204 -730.70188714 1334.67083324 -748.4800415 1332.67974854 C-762.51896645 1331.10582339 -776.53640957 1329.44616363 -790.54003906 1327.58325195 C-800.70607846 1326.24176403 -810.88907601 1325.11099397 -821.08255005 1324.00332642 C-833.02919278 1322.70226393 -844.95371373 1321.26513065 -856.875 1319.75 C-870.84304087 1317.97595685 -884.81966702 1316.31638051 -898.8125 1314.75 C-914.13776736 1313.0341212 -929.44653288 1311.21273079 -944.75 1309.3125 C-963.44416455 1306.9924551 -982.15364481 1304.83865282 -1000.875 1302.75 C-1021.26580593 1300.47482331 -1041.63911164 1298.09166115 -1062 1295.5625 C-1083.27402317 1292.92036432 -1104.55816671 1290.40938332 -1125.86335754 1288.03222656 C-1131.69085989 1287.38069185 -1137.51580423 1286.70908908 -1143.33984375 1286.02734375 C-1144.936354 1285.84133268 -1146.5328708 1285.65537775 -1148.12939453 1285.46948242 C-1150.35634663 1285.21014926 -1152.58315737 1284.94989344 -1154.80950928 1284.68545532 C-1163.20644577 1283.68861195 -1171.54775684 1282.92215965 -1179.9921875 1282.50341797 C-1196.50670892 1280.96114092 -1210.22165419 1271.42215844 -1220.9375 1259.28515625 C-1241.77622204 1234.14411876 -1248.8251257 1200.4850538 -1248.75 1168.625 C-1248.74978851 1167.79322235 -1248.74957703 1166.9614447 -1248.74935913 1166.10446167 C-1248.71567752 1152.79671492 -1247.87634697 1140.09147079 -1244.375 1127.1875 C-1244.19839844 1126.51396484 -1244.02179688 1125.84042969 -1243.83984375 1125.14648438 C-1237.3274204 1101.14699832 -1223.79929675 1076.71533544 -1202.0546875 1063.65625 C-1194.81457124 1059.68790639 -1188.63307402 1057.09825093 -1180.32208252 1056.9901123 C-1179.08055672 1056.97176331 -1177.83903091 1056.95341431 -1176.55988312 1056.93450928 C-1175.18738446 1056.91910061 -1173.8148843 1056.90382589 -1172.44238281 1056.88867188 C-1170.99814124 1056.86939657 -1169.55390452 1056.84975453 -1168.10967255 1056.82977295 C-1164.17666245 1056.77679072 -1160.2436003 1056.73019946 -1156.31049252 1056.68512535 C-1153.81133981 1056.65605475 -1151.31221319 1056.62530923 -1148.81308746 1056.5940094 C-1113.34415694 1056.15040275 -1077.87457577 1055.89947078 -1042.4034729 1055.71517944 C-1036.97364741 1055.68688342 -1031.5438306 1055.657084 -1026.11401367 1055.62719727 C-941.31319557 1055.16242679 -856.51148436 1054.89684055 -759.69941674 1054.58769405 C-745.33528133 1054.54188315 -730.97114721 1054.49567327 -716.60701415 1054.44913062 C-715.0169549 1054.44397946 -713.42689564 1054.43883211 -711.83683637 1054.43368855 C-668.30294346 1054.29284734 -624.76928353 1054.12911948 -581.23565674 1053.92027926 C-577.50171949 1053.90237073 -573.76778181 1053.88455193 -570.03384399 1053.86676216 C-561.47156093 1053.825962 -552.90927828 1053.7850744 -544.34699583 1053.74414599 C-536.00216467 1053.70426577 -527.65733282 1053.66453242 -519.3125 1053.625 C-518.14702165 1053.61947569 -516.98154329 1053.61395139 -515.78074741 1053.60825968 C-418.03749729 1053.14602309 -320.29645259 1053.08770107 -177.375 1053.1875 C-177.33493033 1051.36846177 -177.33493033 1051.36846177 -177.29405117 1049.51267529 C-177.19265625 1044.92807634 -177.08925365 1040.34352434 -176.98530483 1035.75898266 C-176.94094437 1033.79074173 -176.89709792 1031.82248914 -176.85381603 1029.85422421 C-176.48048835 1012.90280419 -175.85010794 995.97681735 -175.03505707 979.04084015 C-174.86548016 975.49338465 -174.70163545 971.94566449 -174.53759766 968.39794922 C-174.50443451 967.68088177 -174.47127136 966.96381432 -174.43710327 966.22501755 C-174.37024059 964.77901558 -174.30339943 963.33301262 -174.2365799 961.88700867 C-174.13757646 959.74899131 -174.03793465 957.61100448 -173.93817139 955.47302246 C-173.52247761 946.54165083 -173.13306175 937.60944369 -172.76953125 928.67578125 C-172.72423782 927.56401016 -172.6789444 926.45223907 -172.63227844 925.30677795 C-172.46394615 921.15452338 -172.29665415 917.00223607 -172.13381958 912.84976196 C-171.73221052 902.60878555 -171.28104651 892.39876179 -170.375 882.1875 C-170.96128174 882.034021 -171.54756348 881.88054199 -172.15161133 881.72241211 C-179.17453087 879.76430302 -185.52955835 876.96017907 -192.0625 873.75 C-193.14611816 873.22212891 -194.22973633 872.69425781 -195.34619141 872.15039062 C-198.69588913 870.5093648 -202.03704808 868.85227572 -205.375 867.1875 C-206.39513184 866.67944824 -207.41526367 866.17139648 -208.46630859 865.64794922 C-221.94313711 858.89078344 -234.7911019 851.48464316 -247.375 843.1875 C-248.48101563 842.46820312 -249.58703125 841.74890625 -250.7265625 841.0078125 C-272.15660981 826.92844105 -292.08949181 811.02009545 -310.86914062 793.58007812 C-312.42143397 792.14455912 -313.98267078 790.719401 -315.546875 789.296875 C-322.87460586 782.631084 -329.96320904 775.92275057 -336.43359375 768.41015625 C-338.66304061 765.85773117 -340.95501382 763.36862486 -343.25 760.875 C-366.31050609 735.55024483 -386.07437139 706.54033002 -402.20263672 676.36767578 C-403.36743382 674.20157038 -404.55835552 672.05159903 -405.75390625 669.90234375 C-431.85206569 622.40948732 -447.5071444 568.78903879 -454.375 515.1875 C-454.4637439 514.49771057 -454.55248779 513.80792114 -454.6439209 513.097229 C-461.05615173 462.27708004 -457.95804801 411.17308357 -447.375 361.1875 C-447.14055176 360.0545752 -446.90610352 358.92165039 -446.66455078 357.75439453 C-437.35150267 313.16086495 -420.56814092 269.4551829 -397.375 230.1875 C-396.90884277 229.38699219 -396.44268555 228.58648438 -395.96240234 227.76171875 C-384.10436626 207.41356325 -370.69511495 188.36048548 -355.875 170.0625 C-355.4020752 169.47855469 -354.92915039 168.89460937 -354.44189453 168.29296875 C-352.76710177 166.24569141 -351.07263713 164.21588697 -349.375 162.1875 C-348.53976807 161.18017822 -347.70453613 160.17285645 -346.84399414 159.13500977 C-339.58271531 150.46111623 -331.85136741 142.35242082 -323.8293457 134.38110352 C-321.80377518 132.36632165 -319.78921616 130.34096725 -317.77539062 128.31445312 C-311.31754649 121.85038979 -304.84142504 115.64265604 -297.64746094 109.99462891 C-295.40049288 108.2077727 -293.29101404 106.32748433 -291.1875 104.375 C-284.63257919 98.4953641 -277.47997826 93.37419943 -270.375 88.1875 C-269.715 87.70265137 -269.055 87.21780273 -268.375 86.71826172 C-248.4511418 72.13609268 -227.31661325 59.48142463 -205.375 48.1875 C-204.1075293 47.53322021 -204.1075293 47.53322021 -202.81445312 46.86572266 C-156.52672702 23.25235403 -104.92437507 8.70047608 -53.4375 2.5625 C-52.41390381 2.43915283 -51.39030762 2.31580566 -50.33569336 2.1887207 C-33.59085171 0.29112081 -16.83697829 -0.02186147 0 0 Z " fill="#FEFEFE" transform="translate(2499.375,585.8125)"/>
<path d="M0 0 C0.94243561 0.00182281 1.88487122 0.00364563 2.85586548 0.00552368 C17.38889496 0.0527413 31.55379857 0.66473098 45.875 3.3125 C46.85339844 3.48410645 47.83179687 3.65571289 48.83984375 3.83251953 C108.64311606 14.48854847 166.28570877 48.35785746 203.875 96.3125 C204.59212158 97.20702881 204.59212158 97.20702881 205.32373047 98.11962891 C229.70180565 128.54414369 246.68006142 163.42594754 255.875 201.3125 C256.30039063 203.03919922 256.30039063 203.03919922 256.734375 204.80078125 C257.58240655 208.62124993 258.27516932 212.44692451 258.875 216.3125 C259.01180176 217.19325195 259.14860352 218.07400391 259.28955078 218.98144531 C267.04463647 271.49220592 260.28407812 325.42889775 236.875 373.3125 C236.47974121 374.12750977 236.08448242 374.94251953 235.67724609 375.78222656 C220.97263934 405.78441375 194.26840226 449.61579887 162.875 465.3125 C162.85518066 464.65354736 162.83536133 463.99459473 162.81494141 463.31567383 C161.97798595 436.8359755 158.20505614 412.62387373 144.875 389.3125 C144.24851562 388.19875 143.62203125 387.085 142.9765625 385.9375 C125.16722671 355.69797474 98.03308586 334.57427472 65.875 321.3125 C64.78703125 320.81492187 63.6990625 320.31734375 62.578125 319.8046875 C20.64859971 302.9090349 -28.32244269 305.94928891 -69.45117188 323.29345703 C-83.68095555 329.62603271 -97.3611053 338.1171246 -109.125 348.3125 C-109.93066406 348.99699219 -110.73632812 349.68148438 -111.56640625 350.38671875 C-122.41913387 359.84676458 -131.38300044 370.17098778 -139.125 382.3125 C-139.80304687 383.36695313 -140.48109375 384.42140625 -141.1796875 385.5078125 C-149.02834666 398.4260336 -155.04900424 413.49179315 -158.125 428.3125 C-158.41117188 429.66601562 -158.41117188 429.66601562 -158.703125 431.046875 C-160.69214272 442.01488697 -160.77456 453.19671425 -161.125 464.3125 C-177.61882371 456.31392406 -192.16712706 438.67183448 -203.125 424.3125 C-203.89457031 423.35988281 -204.66414063 422.40726563 -205.45703125 421.42578125 C-230.38037034 390.144047 -247.22667487 352.57534444 -255.4375 313.5625 C-255.68000488 312.41604004 -255.92250977 311.26958008 -256.17236328 310.08837891 C-259.28670873 294.54746495 -260.54068834 279.07858572 -260.5 263.25 C-260.49945618 262.44044861 -260.49891235 261.63089722 -260.49835205 260.79681396 C-260.28213637 189.82445019 -231.91086367 124.2308224 -182 73.9375 C-176.34352077 68.32436544 -170.41113888 63.21429528 -164.125 58.3125 C-163.0583603 57.44589698 -161.99332866 56.57731197 -160.9296875 55.70703125 C-140.37770486 39.01597021 -116.9125246 25.60301794 -92.125 16.3125 C-91.23683594 15.97766602 -90.34867188 15.64283203 -89.43359375 15.29785156 C-77.56898385 10.90431556 -65.63462711 7.52902895 -53.25 4.9375 C-52.11127441 4.6988623 -50.97254883 4.46022461 -49.79931641 4.21435547 C-33.22097578 0.93754468 -16.86899082 -0.06804643 0 0 Z " fill="#26A9E0" transform="translate(2499.125,782.6875)"/>
</svg>
