<?xml version="1.0" encoding="UTF-8"?>
<svg xmlns="http://www.w3.org/2000/svg" xmlns:xlink="http://www.w3.org/1999/xlink" width="5000" height="2799.42" viewBox="0 0 5000 2799.42">
<path fill-rule="nonzero" fill="rgb(9.008789%, 9.008789%, 9.008789%)" fill-opacity="1" d="M 2299.03125 943.289062 L 2411.589844 943.289062 C 2411.589844 943.289062 2411.589844 943.289062 2411.601562 943.289062 C 2414.269531 943.289062 2416.46875 941.089844 2416.46875 938.421875 C 2416.46875 938.300781 2416.460938 938.191406 2416.460938 938.078125 L 2407.589844 800.148438 C 2407.46875 798.28125 2406.28125 796.628906 2404.53125 795.910156 C 2269.519531 742.898438 2209.589844 591.921875 2278.191406 462.761719 C 2335.589844 354.578125 2467.480469 306.671875 2579.210938 363.78125 C 2761.828125 457.109375 2743.820312 710.761719 2562.558594 792.121094 C 2560.890625 792.871094 2559.769531 794.488281 2559.691406 796.300781 L 2552.289062 938.171875 C 2552.28125 938.25 2552.28125 938.339844 2552.28125 938.421875 C 2552.28125 941.089844 2554.480469 943.289062 2557.148438 943.289062 C 2557.148438 943.289062 2557.160156 943.289062 2557.160156 943.289062 L 2941.628906 943.289062 C 2944.261719 943.289062 2946.441406 941.148438 2946.5 938.511719 L 2948.101562 834.71875 C 2948.140625 832.070312 2950.320312 829.910156 2952.96875 829.910156 C 2953.730469 829.910156 2954.480469 830.089844 2955.160156 830.429688 C 3021.210938 863.308594 3079.761719 906.878906 3130.820312 961.148438 C 3142.761719 973.878906 3152.179688 988.191406 3159.058594 1004.089844 C 3159.71875 1005.640625 3159.53125 1007.410156 3158.570312 1008.769531 C 3149.089844 1022.398438 3141.039062 1032.71875 3134.421875 1039.730469 C 3082.199219 1094.839844 3022.570312 1140.191406 2955.550781 1175.761719 C 2954.851562 1176.140625 2954.058594 1176.339844 2953.261719 1176.339844 C 2950.660156 1176.339844 2948.5 1174.230469 2948.441406 1171.621094 L 2945.910156 1073.371094 C 2945.859375 1070.769531 2943.679688 1068.648438 2941.039062 1068.648438 L 2556.089844 1068.648438 C 2556.058594 1068.648438 2556.039062 1068.648438 2556.019531 1068.648438 C 2553.351562 1068.691406 2551.179688 1070.890625 2551.21875 1073.539062 C 2551.21875 1073.558594 2551.21875 1073.589844 2551.21875 1073.621094 C 2554.011719 1195.691406 2558.539062 1317.691406 2564.800781 1439.628906 C 2564.921875 1441.96875 2566.691406 1443.910156 2568.988281 1444.210938 C 2603.679688 1448.980469 2615.339844 1468.699219 2603.941406 1503.359375 C 2603.78125 1503.859375 2603.691406 1504.378906 2603.691406 1504.898438 C 2603.691406 1507.25 2605.390625 1509.269531 2607.691406 1509.691406 C 2647.738281 1517.03125 2657.820312 1538.730469 2637.929688 1574.78125 C 2636.878906 1576.679688 2637.21875 1579.050781 2638.75 1580.578125 C 2661.929688 1603.699219 2675.410156 1635.058594 2636.660156 1653.460938 C 2634.371094 1654.558594 2633.300781 1657.261719 2634.230469 1659.589844 C 2646.539062 1691.53125 2633.199219 1720.941406 2597.808594 1723.078125 C 2593.460938 1723.339844 2589.210938 1723.929688 2585.050781 1724.828125 C 2582.71875 1725.351562 2581.101562 1727.539062 2581.261719 1729.949219 C 2584.628906 1779.859375 2594.949219 1838.515625 2612.21875 1905.894531 C 2630.871094 1978.679688 2673.949219 2030.480469 2747.710938 2048.203125 C 2806.769531 2062.371094 2854.671875 2045.769531 2912.898438 2018.894531 C 2978.871094 1988.464844 3057.160156 1938.269531 3101.660156 1879.652344 C 3106.300781 1873.519531 3110.058594 1866.882812 3112.949219 1859.742188 C 3119.21875 1844.257812 3114.410156 1836.535156 3098.539062 1836.566406 C 3067.738281 1836.597656 3035.171875 1835.300781 3000.828125 1832.671875 C 2989.558594 1831.796875 2987.421875 1826.910156 2994.398438 1818.019531 C 3001.570312 1808.929688 3012.21875 1798.28125 3026.339844 1786.078125 C 3060.46875 1756.578125 3098.929688 1725.21875 3127.609375 1695.621094 C 3172.328125 1649.441406 3210.351562 1597.980469 3241.679688 1541.238281 C 3256.179688 1514.949219 3270.289062 1488.398438 3283.980469 1461.589844 C 3287.230469 1455.261719 3290.179688 1455.378906 3292.839844 1461.929688 C 3296.480469 1470.890625 3299.890625 1479.988281 3303.070312 1489.238281 C 3306.570312 1499.46875 3309.671875 1510.488281 3312.371094 1522.300781 C 3341.351562 1649.5 3340.800781 1777.839844 3310.710938 1907.308594 C 3303.019531 1940.347656 3293.78125 1970.53125 3283.011719 1997.863281 C 3280.570312 2004.027344 3278.160156 2004.011719 3275.761719 1997.8125 C 3268.839844 1980.09375 3261.621094 1962.628906 3254.089844 1945.429688 C 3245.910156 1926.734375 3235.460938 1909.871094 3222.738281 1894.84375 C 3221.179688 1893 3218.460938 1892.601562 3216.410156 1893.917969 C 3201.460938 1903.511719 3188.75 1914.511719 3177.511719 1929.554688 C 3066.121094 2078.339844 2945.28125 2191.242188 2776.289062 2261.398438 C 2720.851562 2284.441406 2665.390625 2307.324219 2609.878906 2330.042969 C 2568.140625 2347.148438 2532.441406 2372.660156 2502.78125 2406.578125 C 2494.140625 2416.476562 2485.738281 2416.558594 2477.558594 2406.820312 C 2450.578125 2374.851562 2417.738281 2350.992188 2379.019531 2335.253906 C 2324.910156 2313.246094 2270.839844 2291.191406 2216.800781 2269.089844 C 2083.429688 2214.5625 1970.058594 2132.542969 1876.679688 2023.03125 C 1850.878906 1992.78125 1825.820312 1961.882812 1801.511719 1930.335938 C 1791.738281 1917.613281 1780.539062 1906.285156 1767.921875 1896.351562 C 1766.078125 1894.894531 1763.410156 1894.976562 1761.640625 1896.546875 C 1751.960938 1905.246094 1743.691406 1916.25 1736.808594 1929.554688 C 1725.320312 1951.820312 1716.308594 1974.851562 1709.789062 1998.640625 C 1707.769531 2006.039062 1705.320312 2006.1875 1702.429688 1999.078125 C 1693.609375 1977.429688 1686.25 1955.328125 1680.378906 1932.769531 C 1655.210938 1836.371094 1647.710938 1743.871094 1653.941406 1639.199219 C 1657.578125 1578.238281 1668.96875 1518.800781 1688.121094 1460.859375 C 1690.070312 1454.949219 1692.449219 1454.78125 1695.28125 1460.328125 C 1708.679688 1486.578125 1722.429688 1512.730469 1736.511719 1538.761719 C 1779.160156 1617.628906 1832.671875 1682.230469 1900 1740.851562 C 1929.988281 1766.898438 1964.460938 1791.339844 1989.339844 1822.496094 C 1990.03125 1823.359375 1990.410156 1824.4375 1990.410156 1825.546875 C 1990.410156 1827.886719 1988.71875 1829.914062 1986.421875 1830.335938 C 1953.699219 1836.421875 1916.550781 1832.527344 1883.109375 1833.742188 C 1819.128906 1836.078125 1935.691406 1938.125 1950.339844 1949.515625 C 2019.429688 2003.265625 2129.019531 2066.898438 2215.871094 2050.199219 C 2292.75 2035.445312 2342.890625 1982.089844 2362.558594 1905.992188 C 2380.929688 1834.71875 2391.789062 1768.699219 2395.128906 1707.941406 C 2401.691406 1588.761719 2406.199219 1469.460938 2408.671875 1350.050781 C 2408.671875 1349.96875 2408.671875 1349.890625 2408.671875 1349.808594 C 2408.589844 1347.140625 2406.308594 1345 2403.609375 1345.078125 C 2403.539062 1345.078125 2403.480469 1345.078125 2403.410156 1345.089844 C 2368.519531 1347.75 2352.429688 1330.859375 2355.160156 1294.398438 C 2355.351562 1292 2353.671875 1289.800781 2351.269531 1289.289062 C 2312.421875 1281.359375 2313.140625 1265.730469 2314.699219 1233.5 C 2314.820312 1230.929688 2312.878906 1228.691406 2310.320312 1228.441406 C 2270.691406 1224.308594 2256.949219 1202.730469 2269.089844 1163.679688 C 2269.230469 1163.210938 2269.308594 1162.730469 2269.308594 1162.230469 C 2269.308594 1160.019531 2267.78125 1158.070312 2265.628906 1157.550781 C 2260.238281 1156.191406 2254.96875 1154.300781 2249.808594 1151.898438 C 2221.078125 1138.761719 2229.648438 1120.699219 2233.011719 1097.078125 C 2233.359375 1094.621094 2231.789062 1092.269531 2229.410156 1091.679688 C 2217.109375 1088.53125 2207.558594 1081.601562 2200.78125 1070.890625 C 2199.871094 1069.5 2198.308594 1068.648438 2196.640625 1068.648438 L 2025.410156 1068.648438 C 2022.820312 1068.648438 2020.671875 1070.761719 2020.589844 1073.371094 L 2017.53125 1172.398438 C 2017.429688 1175.019531 2015.238281 1177.128906 2012.609375 1177.128906 C 2011.828125 1177.128906 2011.058594 1176.941406 2010.371094 1176.589844 C 1945.75 1142.671875 1888.53125 1099.140625 1838.710938 1046.011719 C 1826.601562 1033.058594 1817.429688 1020.308594 1811.199219 1007.738281 C 1810.53125 1006.429688 1810.511719 1004.859375 1811.148438 1003.511719 C 1821.078125 982.441406 1834.101562 963.640625 1850.191406 947.078125 C 1896.929688 899.050781 1950.359375 860.261719 2010.46875 830.730469 C 2011.128906 830.398438 2011.871094 830.230469 2012.609375 830.230469 C 2015.25 830.230469 2017.429688 832.371094 2017.480469 835.011719 L 2019.570312 938.511719 C 2019.621094 941.148438 2021.808594 943.289062 2024.441406 943.289062 L 2206.71875 943.289062 C 2209.378906 943.28125 2211.570312 941.078125 2211.570312 938.421875 C 2211.570312 937.820312 2211.460938 937.21875 2211.25 936.660156 C 2200.828125 909.730469 2209.828125 891.730469 2238.269531 882.671875 C 2240.339844 882 2241.730469 880.050781 2241.679688 877.898438 C 2240.441406 839.828125 2259.21875 823 2298 827.410156 C 2299.398438 827.570312 2300.800781 827.128906 2301.851562 826.199219 C 2352.730469 780.328125 2394.640625 881.601562 2333.789062 897.761719 C 2326.578125 899.648438 2319.179688 900.378906 2311.589844 899.960938 C 2311.480469 899.949219 2311.378906 899.949219 2311.28125 899.949219 C 2308.609375 899.949219 2306.410156 902.140625 2306.410156 904.808594 C 2306.410156 904.949219 2306.421875 905.078125 2306.429688 905.210938 C 2307.429688 917.609375 2304.011719 928.128906 2296.148438 936.761719 C 2292.191406 941.109375 2293.148438 943.289062 2299.03125 943.289062 Z M 2563.390625 463.589844 C 2466.550781 388.128906 2330.039062 466.949219 2342.359375 588.808594 C 2346.28125 627.820312 2364.25 659.578125 2396.25 684.078125 C 2401.089844 687.78125 2403.699219 686.621094 2404.089844 680.578125 L 2404.191406 678.828125 C 2404.390625 676.28125 2406.53125 674.289062 2409.058594 674.300781 L 2553.511719 674.300781 C 2555.761719 674.300781 2557.738281 675.859375 2558.28125 678.050781 C 2559.671875 683.859375 2562.980469 684.289062 2568.210938 679.359375 C 2632.46875 618.800781 2634.371094 518.941406 2563.390625 463.589844 Z M 2406.621094 1256.238281 C 2409.25 1256.210938 2411.410156 1254.089844 2411.488281 1251.460938 L 2416.601562 1074.199219 C 2416.601562 1074.148438 2416.601562 1074.101562 2416.601562 1074.050781 C 2416.601562 1071.421875 2414.46875 1069.238281 2411.828125 1069.191406 C 2396.589844 1068.890625 2300.96875 1065.191406 2294.261719 1070.890625 C 2292.5 1072.351562 2291.328125 1074.269531 2290.75 1076.628906 C 2290.121094 1079.109375 2291.570312 1081.679688 2294.011719 1082.429688 C 2318.519531 1090.019531 2327.589844 1106.96875 2321.230469 1133.261719 C 2321.128906 1133.628906 2321.089844 1134.019531 2321.089844 1134.410156 C 2321.089844 1136.628906 2322.621094 1138.578125 2324.78125 1139.101562 C 2352.761719 1145.949219 2364.640625 1163.910156 2360.421875 1192.988281 C 2360.390625 1193.210938 2360.371094 1193.441406 2360.371094 1193.660156 C 2360.371094 1196.109375 2362.21875 1198.199219 2364.648438 1198.488281 C 2393.511719 1202 2405.519531 1218.421875 2400.679688 1247.761719 C 2400 1251.890625 2399.71875 1254.058594 2399.851562 1254.289062 C 2400.671875 1255.589844 2402.921875 1256.238281 2406.621094 1256.238281 Z M 2571.28125 1583.449219 C 2570.898438 1583.300781 2570.511719 1583.21875 2570.109375 1583.21875 C 2568.398438 1583.21875 2566.988281 1584.628906 2566.988281 1586.339844 C 2566.988281 1586.371094 2566.988281 1586.390625 2566.988281 1586.421875 C 2567.511719 1609.429688 2570.011719 1610 2574.488281 1588.128906 C 2574.910156 1586.078125 2573.839844 1584.519531 2571.28125 1583.449219 "/>
</svg>
